<?xml version="1.0" encoding="UTF-8" standalone="no"?>
<svg width="80px" height="80px" viewBox="0 0 80 80" version="1.1" xmlns="http://www.w3.org/2000/svg" xmlns:xlink="http://www.w3.org/1999/xlink">
    <!-- Generator: Sketch 39.1 (31720) - http://www.bohemiancoding.com/sketch -->
    <title>icon-goal-health</title>
    <desc>Created with Sketch.</desc>
    <defs>
        <polygon id="path-1" points="0 79.9875 60 79.9875 60 0 0 0"></polygon>
    </defs>
    <g id="Page-1" stroke="none" stroke-width="1" fill="none" fill-rule="evenodd" opacity="0.08">
        <g id="icon-goal-health">
            <g id="wedding" transform="translate(10.000000, 0.000000)">
                <g id="Group-3">
                    <mask id="mask-2" fill="white">
                        <use xlink:href="#path-1"></use>
                    </mask>
                    <g id="Clip-2"></g>
                    <path d="M55,8.33333333 L41.4558333,8.33333333 C40.77875,5.71208333 38.5433333,3.71083333 35.8008333,3.38125 C34.6320833,1.32083333 32.4252083,0 30,0 C27.5747917,0 25.3679167,1.32083333 24.1991667,3.38125 C21.4566667,3.71083333 19.22125,5.71208333 18.5441667,8.33333333 L5,8.33333333 C2.24291667,8.33333333 0,10.57625 0,13.3333333 L0,75 C0,77.7570833 2.24291667,80 5,80 L55,80 C57.7570833,80 60,77.7570833 60,75 L60,13.3333333 C60,10.57625 57.7570833,8.33333333 55,8.33333333 L55,8.33333333 Z M25,6.66666667 L25.285625,6.66666667 C25.9920833,6.66666667 26.621875,6.22145833 26.8570833,5.55583333 C27.3266667,4.22604167 28.5895833,3.33333333 30,3.33333333 C31.4104167,3.33333333 32.6733333,4.22604167 33.1429167,5.55583333 C33.378125,6.22145833 34.0079167,6.66666667 34.714375,6.66666667 L35,6.66666667 C36.8383333,6.66666667 38.3333333,8.16166667 38.3333333,10 C38.3333333,11.8383333 36.8383333,13.3333333 35,13.3333333 L25,13.3333333 C23.1616667,13.3333333 21.6666667,11.8383333 21.6666667,10 C21.6666667,8.16166667 23.1616667,6.66666667 25,6.66666667 L25,6.66666667 Z M11.6666667,11.6666667 L18.5441667,11.6666667 C19.28625,14.5385417 21.899375,16.6666667 25,16.6666667 L35,16.6666667 C38.100625,16.6666667 40.71375,14.5385417 41.4558333,11.6666667 L48.3333333,11.6666667 L48.3333333,68.3333333 L11.6666667,68.3333333 L11.6666667,11.6666667 Z M56.6666667,75 C56.6666667,75.91875 55.91875,76.6666667 55,76.6666667 L5,76.6666667 C4.08125,76.6666667 3.33333333,75.91875 3.33333333,75 L3.33333333,13.3333333 C3.33333333,12.4145833 4.08125,11.6666667 5,11.6666667 L8.33333333,11.6666667 L8.33333333,68.3333333 C8.33333333,70.1716667 9.82833333,71.6666667 11.6666667,71.6666667 L48.3333333,71.6666667 C50.1716667,71.6666667 51.6666667,70.1716667 51.6666667,68.3333333 L51.6666667,11.6666667 L55,11.6666667 C55.91875,11.6666667 56.6666667,12.4145833 56.6666667,13.3333333 L56.6666667,75 Z" id="Fill-1" fill="#FFFFFF" mask="url(#mask-2)"></path>
                </g>
                <path d="M23.3333333,26.6666667 L36.6666667,26.6666667 C37.5870833,26.6666667 38.3333333,25.9204167 38.3333333,25 C38.3333333,24.0795833 37.5870833,23.3333333 36.6666667,23.3333333 L23.3333333,23.3333333 C22.4129167,23.3333333 21.6666667,24.0795833 21.6666667,25 C21.6666667,25.9204167 22.4129167,26.6666667 23.3333333,26.6666667 L23.3333333,26.6666667 Z" id="Fill-4" fill="#FFFFFF"></path>
                <path d="M36.6666667,40 L23.3333333,40 C22.4129167,40 21.6666667,40.74625 21.6666667,41.6666667 C21.6666667,42.5870833 22.4129167,43.3333333 23.3333333,43.3333333 L36.6666667,43.3333333 C37.5870833,43.3333333 38.3333333,42.5870833 38.3333333,41.6666667 C38.3333333,40.74625 37.5870833,40 36.6666667,40 L36.6666667,40 Z" id="Fill-5" fill="#FFFFFF"></path>
                <path d="M32.9995833,50 C31.9141667,50 30.865,50.3491667 30,50.9652083 C29.135,50.3491667 28.0858333,50 27.0004167,50 C24.15125,50 21.8335417,52.3177083 21.8335417,55.166875 C21.8335417,56.61625 22.4722917,57.979375 23.585625,58.9079167 L28.0485417,62.626875 C28.5954167,63.0827083 29.28875,63.3333333 30,63.3333333 C30.71125,63.3333333 31.4045833,63.0827083 31.950625,62.626875 L36.414375,58.9070833 C37.5277083,57.979375 38.1664583,56.61625 38.1664583,55.166875 C38.1664583,52.3177083 35.84875,50 32.9995833,50 L32.9995833,50 Z M34.280625,56.346875 L30,59.91375 L25.719375,56.346875 C25.3679167,56.0539583 25.166875,55.6241667 25.166875,55.166875 C25.166875,54.1560417 25.98875,53.3333333 27.0004167,53.3333333 C27.6489583,53.3333333 28.2364583,53.66625 28.5725,54.2235417 C28.87375,54.7241667 29.415625,55.0302083 30,55.0302083 C30.584375,55.0302083 31.1254167,54.7241667 31.4275,54.2235417 C31.7635417,53.66625 32.3510417,53.3333333 32.9995833,53.3333333 C34.01125,53.3333333 34.833125,54.1560417 34.833125,55.166875 C34.833125,55.6241667 34.6320833,56.0539583 34.280625,56.346875 L34.280625,56.346875 Z" id="Fill-6" fill="#FFFFFF"></path>
                <path d="M41.6666667,31.6666667 L18.3333333,31.6666667 C17.4129167,31.6666667 16.6666667,32.4129167 16.6666667,33.3333333 C16.6666667,34.25375 17.4129167,35 18.3333333,35 L41.6666667,35 C42.5870833,35 43.3333333,34.25375 43.3333333,33.3333333 C43.3333333,32.4129167 42.5870833,31.6666667 41.6666667,31.6666667 L41.6666667,31.6666667 Z" id="Fill-7" fill="#FFFFFF"></path>
            </g>
        </g>
    </g>
</svg>