<?xml version="1.0" encoding="UTF-8" standalone="no"?>
<svg width="80px" height="80px" viewBox="0 0 80 80" version="1.1" xmlns="http://www.w3.org/2000/svg" xmlns:xlink="http://www.w3.org/1999/xlink">
    <!-- Generator: Sketch 39.1 (31720) - http://www.bohemiancoding.com/sketch -->
    <title>icon-goal-business</title>
    <desc>Created with Sketch.</desc>
    <defs>
        <polygon id="path-1" points="0 79.8068468 79.9259446 79.8068468 79.9259446 0 0 0"></polygon>
    </defs>
    <g id="Page-1" stroke="none" stroke-width="1" fill="none" fill-rule="evenodd" opacity="0.08">
        <g id="icon-goal-business">
            <g id="briefcase-1">
                <g id="Group-3">
                    <mask id="mask-2" fill="white">
                        <use xlink:href="#path-1"></use>
                    </mask>
                    <g id="Clip-2"></g>
                    <path d="M79.9259446,25.4785939 C79.9259446,19.5088952 75.0671132,14.6512319 69.0959791,14.6512319 L58.6106943,14.6512319 L58.6106943,10.6509013 L55.9514915,10.6509013 L55.9514915,9.17595619 C55.9514915,4.11686133 51.8336402,0 46.7733288,0 L33.1526158,0 C28.0923044,0 23.9744531,4.11686133 23.9744531,9.17595619 L23.9744531,10.6509013 L21.3152504,10.6509013 L21.3152504,14.6512319 L10.8299655,14.6512319 C4.85883138,14.6512319 0,19.5088952 0,25.4785939 L0,39.1010267 L0.897501753,39.4073358 L1.3337642,39.5571609 L1.3337642,75.6017552 C1.3337642,77.9756509 3.26530786,79.9067303 5.63311397,79.9067303 L74.2928307,79.9067303 C76.6606368,79.9067303 78.5921804,77.9756509 78.5921804,75.6084141 L78.5921804,39.5571609 L79.0284429,39.4073358 L79.9259446,39.0943678 L79.9259446,25.4785939 Z M69.0959791,17.3097954 C73.5968089,17.3097954 77.2584162,20.9788461 77.2584162,25.4785939 L77.2584162,37.1965829 L76.1461135,37.5794694 L75.9329776,37.6577114 L70.1883004,39.6354029 C64.5102281,41.5914531 58.2593531,42.886608 50.6164347,43.6856753 L50.6164347,33.2944709 L46.6234677,33.2944709 L46.6234677,17.3097954 L69.0959791,17.3097954 Z M35.9700053,51.9377099 L43.9559393,51.9377099 L43.9559393,54.0519089 L40.7439154,57.2631606 L39.1820292,57.2631606 L35.9700053,54.0519089 L35.9700053,51.9377099 Z M33.3024769,49.2791464 L31.9687127,49.2791464 L31.9687127,35.9613581 L47.9572319,35.9613581 L47.9572319,49.2791464 L33.3024769,49.2791464 Z M47.9572319,10.6509013 L45.2897035,10.6509013 L45.2897035,14.6512319 L34.6362411,14.6512319 L34.6362411,10.6509013 L31.9687127,10.6509013 L31.9687127,8.58331461 C31.9687127,8.22040488 32.2034952,8.0239675 32.3000724,7.95904328 C32.4049752,7.88746017 32.671395,7.75095284 33.0094151,7.88746017 C37.4919285,9.7419622 42.4340161,9.74695637 46.92319,7.88746017 C47.2545496,7.75095284 47.5209695,7.88746017 47.6258723,7.95904328 C47.7224494,8.0239675 47.9572319,8.22040488 47.9572319,8.58331461 L47.9572319,10.6509013 Z M35.9700053,33.2944709 L43.9559393,33.2944709 L43.9559393,17.3097954 L35.9700053,17.3097954 L35.9700053,33.2944709 Z M47.9572319,14.6512319 L55.9514915,14.6512319 L55.9514915,13.3177884 L47.9572319,13.3177884 L47.9572319,14.6512319 Z M26.6419815,9.17595619 C26.6419815,5.5851475 29.5626088,2.66688712 33.1526158,2.66688712 L46.7733288,2.66688712 C50.3633359,2.66688712 53.2839631,5.5851475 53.2839631,9.17595619 L53.2839631,10.6509013 L50.6164347,10.6509013 L50.6164347,8.58331461 C50.6164347,7.43964953 50.0519577,6.37922063 49.101172,5.74829041 C48.1520514,5.11070129 46.9614878,4.98751175 45.9008039,5.43032821 C42.0710191,7.01015086 37.8549255,7.01015086 34.0251407,5.43032821 C32.9711173,4.98751175 31.7738932,5.11070129 30.8247726,5.74829041 C29.8739869,6.37922063 29.3095099,7.43964953 29.3095099,8.58331461 L29.3095099,10.6509013 L26.6419815,10.6509013 L26.6419815,9.17595619 Z M23.9744531,14.6512319 L31.9687127,14.6512319 L31.9687127,13.3177884 L23.9744531,13.3177884 L23.9744531,14.6512319 Z M10.8299655,17.3097954 L33.3024769,17.3097954 L33.3024769,33.2944709 L29.3095099,33.2944709 L29.3095099,43.7189698 C21.9463323,43.0414273 16.0201565,41.7995435 9.73098376,39.6354029 L3.99296698,37.6577114 L3.29694522,37.4179912 L2.6675284,37.1965829 L2.6675284,25.4785939 C2.6675284,20.9788461 6.32913574,17.3097954 10.8299655,17.3097954 L10.8299655,17.3097954 Z M75.9329776,75.6084141 C75.9329776,76.5057001 75.1969929,77.2398431 74.2928307,77.2398431 L5.63311397,77.2398431 C4.72895172,77.2398431 3.99296698,76.5057001 3.99296698,75.6084141 L3.99296698,40.4727589 L8.86511936,42.1508002 C15.4290376,44.4148242 21.619968,45.6949966 29.3095099,46.3841922 L29.3095099,51.9377099 L33.3024769,51.9377099 L33.3024769,55.1572853 L38.076387,59.9300477 L41.8495576,59.9300477 L46.6234677,55.1572853 L46.6234677,51.9377099 L50.6164347,51.9377099 L50.6164347,46.3525624 C58.5857174,45.5385126 65.114668,44.2000749 71.0608253,42.1508002 L75.9329776,40.4727589 L75.9329776,75.6084141 Z" id="Fill-1" fill="#FFFFFF" mask="url(#mask-2)"></path>
                </g>
                <path d="M55.9514915,73.2478361 L71.931685,73.2478361 L71.931685,65.2554983 L55.9514915,65.2554983 L55.9514915,73.2478361 Z M58.6106943,70.5809489 L69.2724823,70.5809489 L69.2724823,67.9223854 L58.6106943,67.9223854 L58.6106943,70.5809489 Z" id="Fill-4" fill="#FFFFFF"></path>
                <path d="M35.9700053,45.2788158 L38.6292081,45.2788158 L38.6292081,46.6122593 C38.6292081,47.3464024 39.2286527,47.9457029 39.9629723,47.9457029 C40.6972919,47.9457029 41.2967365,47.3464024 41.2967365,46.6122593 L41.2967365,45.2788158 L43.9559393,45.2788158 L43.9559393,37.286478 L35.9700053,37.286478 L35.9700053,45.2788158 Z M38.6292081,42.6202523 L41.2967365,42.6202523 L41.2967365,39.9533651 L38.6292081,39.9533651 L38.6292081,42.6202523 Z" id="Fill-5" fill="#FFFFFF"></path>
            </g>
        </g>
    </g>
</svg>