<?xml version="1.0" encoding="UTF-8" standalone="no"?>
<svg width="160px" height="154px" viewBox="0 0 160 154" version="1.1" xmlns="http://www.w3.org/2000/svg" xmlns:xlink="http://www.w3.org/1999/xlink">
    <!-- Generator: Sketch 39.1 (31720) - http://www.bohemiancoding.com/sketch -->
    <title>mortgage</title>
    <desc>Created with Sketch.</desc>
    <defs></defs>
    <g id="Marketing" stroke="none" stroke-width="1" fill="none" fill-rule="evenodd">
        <g id="security" transform="translate(-290.000000, -1046.000000)" fill="#FFFFFF">
            <g id="mortgage" transform="translate(290.000000, 1046.000000)">
                <g id="Layer_1">
                    <g id="Group" transform="translate(0.000000, 41.793372)">
                        <path d="M149.042339,0.187134503 C143.170994,0.187134503 138.396569,4.96187135 138.396569,10.8329045 L138.396569,31.9036257 C138.396569,33.3726316 139.586121,34.5649903 141.057934,34.5649903 C142.529747,34.5649903 143.719298,33.3726316 143.719298,31.9036257 L143.719298,10.8329045 C143.719298,7.89738791 146.106511,5.50986355 149.042339,5.50986355 C151.978168,5.50986355 154.36538,7.89707602 154.36538,10.8329045 L154.36538,50.7549318 C154.36538,58.1270955 150.152359,61.8850682 149.822378,62.1807407 L125.869162,86.1339571 C124.828382,87.1747368 124.828382,88.8567641 125.869162,89.897232 C126.388148,90.4162183 127.06963,90.6769591 127.750799,90.6769591 C128.432281,90.6769591 129.11345,90.4162183 129.632437,89.897232 L153.420663,66.0955945 C153.676101,65.880078 159.688421,60.6927096 159.688421,50.7549318 L159.688421,10.8329045 C159.688109,4.96187135 154.913372,0.187134503 149.042339,0.187134503 L149.042339,0.187134503 Z" id="Shape"></path>
                        <path d="M141.057934,96 L106.458635,96 L106.458635,74.7081481 C106.458635,67.4317349 110.69848,63.5617934 111.001637,63.2823392 L129.631813,44.6521637 C130.688499,43.5954776 132.008421,42.9835478 133.344561,42.9302144 C134.686004,42.8690838 135.864951,43.3612476 136.836491,44.3299805 C137.757505,45.2509942 138.241871,46.3925146 138.241871,47.6353996 C138.241871,49.0379727 137.62963,50.4218324 136.51462,51.534347 L123.207485,64.8421053 C122.166706,65.882885 122.166706,67.5649123 123.207485,68.6053801 C124.247953,69.6461598 125.930292,69.6461598 126.97076,68.6053801 L140.2754,55.3007407 C142.396569,53.1848733 143.564912,50.4648733 143.564912,47.6382066 C143.567719,44.9899415 142.513528,42.4801559 140.600078,40.5667057 C138.577466,38.5465887 135.90269,37.5033138 133.12655,37.6096686 C130.448967,37.7213255 127.872749,38.8843665 125.86885,40.888577 L107.376842,59.3911891 C107.121404,59.6120078 101.135595,64.9138402 101.135595,74.7078363 L101.135595,96 L98.47423,96 C97.0024172,96 95.8128655,97.1923587 95.8128655,98.6613645 L95.8128655,109.307135 C95.8128655,110.77614 97.0024172,111.968499 98.47423,111.968499 C99.9460429,111.968499 101.135595,110.77614 101.135595,109.307135 L101.135595,101.322729 L138.396257,101.322729 L138.396257,109.307135 C138.396257,110.77614 139.585809,111.968499 141.057622,111.968499 C142.529435,111.968499 143.718986,110.77614 143.718986,109.307135 L143.718986,98.6613645 C143.719298,97.1923587 142.529747,96 141.057934,96 L141.057934,96 Z" id="Shape"></path>
                        <path d="M61.2138791,96 L58.5525146,96 L58.5525146,74.7081481 C58.5525146,64.9138402 52.5670175,59.6123197 52.4497466,59.5190643 L33.8220663,40.8888889 C31.8206628,38.8846784 29.2416374,37.7216374 26.5668616,37.6099805 C23.7217934,37.5036257 21.1109552,38.5440936 19.0880312,40.5670175 C17.0654191,42.5871345 16.0193372,45.2431969 16.1338012,48.0405458 C16.242963,50.7181287 17.4060039,53.2968421 19.4102144,55.2982456 L32.7176608,68.605692 C33.7584405,69.6464717 35.4404678,69.6464717 36.4809357,68.605692 C37.5214035,67.5649123 37.5214035,65.882885 36.4809357,64.8424172 L23.1734893,51.5349708 C22.1196101,50.4782846 21.5048733,49.1608577 21.45154,47.8222222 C21.3957115,46.5076023 21.8825731,45.3018324 22.8516179,44.3302924 C23.8231579,43.3587524 25.0819493,42.8690838 26.3460429,42.9305263 C27.6846784,42.9838596 28.9996101,43.5957895 30.0559844,44.6524756 L48.8112281,63.399922 C48.9896296,63.5624172 53.2291618,67.4320468 53.2291618,74.70846 L53.2291618,96 L18.6301754,96 C17.1583626,96 15.9688109,97.1923587 15.9688109,98.6613645 L15.9688109,109.307135 C15.9688109,110.77614 17.1583626,111.968499 18.6301754,111.968499 C20.1019883,111.968499 21.29154,110.77614 21.29154,109.307135 L21.29154,101.322729 L58.5522027,101.322729 L58.5522027,109.307135 C58.5522027,110.77614 59.7417544,111.968499 61.2135673,111.968499 C62.6853801,111.968499 63.8749318,110.77614 63.8749318,109.307135 L63.8749318,98.6613645 C63.8752437,97.1923587 62.685692,96 61.2138791,96 L61.2138791,96 Z" id="Shape"></path>
                        <path d="M31.9376218,90.6769591 C32.6191033,90.6769591 33.3002729,90.4162183 33.8192593,89.897232 C34.860039,88.8564522 34.860039,87.174425 33.8192593,86.1339571 L9.71446394,62.0422612 C9.53606238,61.8853801 5.32304094,58.1270955 5.32304094,50.7549318 L5.32304094,10.8329045 C5.32304094,7.89738791 7.71025341,5.50986355 10.6460819,5.50986355 C13.5815984,5.50986355 15.9691228,7.89707602 15.9691228,10.8329045 L15.9691228,31.9036257 C15.9691228,33.3726316 17.1586745,34.5649903 18.6304873,34.5649903 C20.1023002,34.5649903 21.2918519,33.3726316 21.2918519,31.9036257 L21.2918519,10.8329045 C21.2918519,4.96155945 16.517115,0.187134503 10.6460819,0.187134503 C4.77473684,0.187134503 0,4.96187135 0,10.8329045 L0,50.7549318 C0,60.6927096 6.01231969,65.880078 6.10276803,65.9440156 L30.0559844,89.897232 C30.5749708,90.4162183 31.2561404,90.6769591 31.9376218,90.6769591 L31.9376218,90.6769591 Z" id="Shape"></path>
                    </g>
                    <g id="funds" transform="translate(30.253411, 0.000000)">
                        <g id="Capa_1">
                            <g id="Group">
                                <path d="M75.8881403,37.3683502 C75.8858944,37.3499439 75.8845469,37.3313131 75.8818518,37.3131313 C75.8688256,37.2224467 75.8515322,37.1319865 75.827052,37.0426487 C75.8268274,37.0417508 75.8263782,37.040853 75.8261536,37.0397306 C75.8032455,36.956229 75.7740488,36.8738496 75.7410342,36.7923681 C75.7316014,36.7690236 75.7212703,36.7465769 75.7111637,36.7236813 C75.6851113,36.6648709 75.6561393,36.6069585 75.6246968,36.5499439 C75.6109968,36.5250281 75.597746,36.5001122 75.5829231,36.4756453 C75.5750625,36.4624018 75.568774,36.4487093 75.5604641,36.4354658 C75.5272249,36.382716 75.4908414,36.3331089 75.4540087,36.2839506 C75.4470464,36.2747475 75.4414317,36.2650954 75.4344694,36.2561167 C75.378322,36.1833895 75.3176828,36.1158249 75.254124,36.0518519 C75.2422207,36.0397306 75.2291945,36.0285073 75.2168421,36.016835 C75.1615931,35.9636364 75.1043227,35.9138047 75.0445819,35.8668911 C75.0293098,35.8549944 75.0144869,35.8430976 74.9987656,35.8316498 C74.9188118,35.7723906 74.8363874,35.7171717 74.7503696,35.6693603 L41.6627119,16.8718294 L60.7135218,4.88215488 L92.6517301,23.0262626 L79.2008364,31.4915825 C78.1511048,32.1519641 77.8360056,33.5380471 78.4969727,34.5869809 C79.1577152,35.6361392 80.5443312,35.9510662 81.5940628,35.2904602 L98.21953,24.827385 C98.8879085,24.4069585 99.2861058,23.6664422 99.2681386,22.8772166 C99.2503961,22.087991 98.8194087,21.3665544 98.1326138,20.976431 L61.7641517,0.315151515 C61.0447914,-0.0938271605 60.1583363,-0.0736251403 59.4576169,0.367003367 L36.1101841,15.0608305 C36.1054677,15.0637486 36.1005267,15.0668911 36.0958103,15.0698092 L24.4290562,22.4123457 C24.423666,22.4157127 24.4182759,22.4190797 24.4131103,22.4224467 L1.04973163,37.1263749 C0.381353082,37.5468013 -0.0168442174,38.2873176 0.00112294783,39.0765432 C0.0188655235,39.8657688 0.449852899,40.5872054 1.13664779,40.9773288 L37.5053344,61.6386083 C37.8498548,61.8345679 38.2325555,61.9319865 38.6150315,61.9319865 C39.0311959,61.9319865 39.4466866,61.8163861 39.8116447,61.5867565 L56.4371118,51.1234568 C57.4868435,50.4630752 57.8019426,49.0769921 57.1409755,48.0280584 C56.4804576,46.9789001 55.0933925,46.6637486 54.0438854,47.3245791 L38.5559644,57.0718294 L6.61775613,38.9272727 L25.6687906,26.9373737 L59.7322899,46.2891134 L59.7322899,71.9191919 C59.7322899,72.7367003 60.1767527,73.4893378 60.8927442,73.8843996 C61.2312007,74.071156 61.6049177,74.1638608 61.9781856,74.1638608 C62.3945746,74.1638608 62.8100653,74.0482604 63.1747988,73.8186308 L74.8566004,66.4666667 C75.5097069,66.0556678 75.9058829,65.3384961 75.9058829,64.5672278 L75.9058829,37.6312009 C75.9058829,37.6179574 75.903637,37.6053872 75.9031878,37.5921437 C75.9018403,37.5176207 75.8968993,37.4430976 75.8881403,37.3683502 L75.8881403,37.3683502 Z M64.2240812,67.8534231 L64.2240812,44.9833895 C64.2240812,44.175982 63.7901742,43.4309764 63.0878826,43.0320988 L29.9809102,24.2237935 L37.3503676,19.5856341 L69.2883514,37.7299663 L66.4919867,39.4897868 C65.442255,40.1501684 65.1271559,41.5362514 65.788123,42.5851852 C66.2148432,43.2630752 66.9445346,43.634119 67.6908458,43.634119 C68.0995988,43.634119 68.5137419,43.5225589 68.8852131,43.2886644 L71.413867,41.6974186 L71.413867,63.3283951 L64.2240812,67.8534231 L64.2240812,67.8534231 Z" id="Shape"></path>
                                <path d="M95.8265281,30.0069585 L79.201061,40.4700337 C78.1513294,41.1304153 77.8362302,42.5164983 78.4971973,43.5654321 C78.9239175,44.2433221 79.653609,44.6143659 80.3999201,44.6143659 C80.8086731,44.6143659 81.2228163,44.5028058 81.5942874,44.2689113 L98.2197546,33.8058361 C99.2694862,33.1454545 99.5845853,31.7593715 98.9236183,30.7104377 C98.2628757,29.6612795 96.8760352,29.3461279 95.8265281,30.0069585 L95.8265281,30.0069585 Z" id="Shape"></path>
                                <path d="M54.0436608,56.3030303 L38.5557398,66.0502806 L3.35604187,46.0531987 C2.27846114,45.440853 0.906668075,45.8170595 0.293763151,46.8953984 C-0.319141772,47.973064 0.0579441078,49.3434343 1.1364232,49.9560045 L37.5051099,70.617284 C37.8496302,70.8132435 38.2323309,70.9106622 38.6148069,70.9106622 C39.0309714,70.9106622 39.4464621,70.7950617 39.8114201,70.5654321 L56.4368873,60.1021324 C57.4866189,59.4417508 57.801718,58.0556678 57.1407509,57.006734 C56.480233,55.9573513 55.0931679,55.6421998 54.0436608,56.3030303 L54.0436608,56.3030303 Z" id="Shape"></path>
                                <path d="M95.8265281,38.9856341 L79.201061,49.4487093 C78.1513294,50.1090909 77.8362302,51.495174 78.4971973,52.5441077 C78.9239175,53.2219978 79.653609,53.5930415 80.3999201,53.5930415 C80.8086731,53.5930415 81.2228163,53.4814815 81.5942874,53.247587 L98.2197546,42.7845118 C99.2694862,42.1241302 99.5845853,40.7380471 98.9236183,39.6891134 C98.2628757,38.6397306 96.8760352,38.3248036 95.8265281,38.9856341 L95.8265281,38.9856341 Z" id="Shape"></path>
                                <path d="M54.0436608,65.2817059 L38.5557398,75.0289562 L3.35604187,55.0318743 C2.27846114,54.4195286 0.906668075,54.7957351 0.293763151,55.8740741 C-0.319141772,56.9517396 0.0579441078,58.32211 1.1364232,58.9346801 L37.5051099,79.5959596 C37.8496302,79.7919192 38.2323309,79.8893378 38.6148069,79.8893378 C39.0309714,79.8893378 39.4464621,79.7737374 39.8114201,79.5441077 L56.4368873,69.0808081 C57.4866189,68.4204265 57.801718,67.0343434 57.1407509,65.9854097 C56.480233,64.9358025 55.0931679,64.6208754 54.0436608,65.2817059 L54.0436608,65.2817059 Z" id="Shape"></path>
                                <path d="M95.8265281,47.9643098 L79.201061,58.427385 C78.1513294,59.0877666 77.8362302,60.4738496 78.4971973,61.5227834 C78.9239175,62.2006734 79.653609,62.5717172 80.3999201,62.5717172 C80.8086731,62.5717172 81.2228163,62.4601571 81.5942874,62.2262626 L98.2197546,51.7631874 C99.2694862,51.1028058 99.5845853,49.7167228 98.9236183,48.667789 C98.2628757,47.6186308 96.8760352,47.3037037 95.8265281,47.9643098 L95.8265281,47.9643098 Z" id="Shape"></path>
                                <path d="M54.0436608,74.2603816 L38.5557398,84.0076319 L3.35604187,64.0105499 C2.27846114,63.3982043 0.906668075,63.7744108 0.293763151,64.8527497 C-0.319141772,65.9304153 0.0579441078,67.3007856 1.1364232,67.9133558 L37.5051099,88.5746352 C37.8496302,88.7705948 38.2323309,88.8680135 38.6148069,88.8680135 C39.0309714,88.8680135 39.4464621,88.752413 39.8114201,88.5227834 L56.4368873,78.0594837 C57.4866189,77.3991021 57.801718,76.0130191 57.1407509,74.9640853 C56.480233,73.9147026 55.0931679,73.5995511 54.0436608,74.2603816 L54.0436608,74.2603816 Z" id="Shape"></path>
                            </g>
                        </g>
                    </g>
                </g>
            </g>
        </g>
    </g>
</svg>