<?xml version="1.0" encoding="UTF-8" standalone="no"?>
<svg width="240px" height="310px" viewBox="0 0 240 310" version="1.1" xmlns="http://www.w3.org/2000/svg" xmlns:xlink="http://www.w3.org/1999/xlink">
    <!-- Generator: Sketch 39.1 (31720) - http://www.bohemiancoding.com/sketch -->
    <title>fingerprint</title>
    <desc>Created with Sketch.</desc>
    <defs></defs>
    <g id="Marketing" stroke="none" stroke-width="1" fill="none" fill-rule="evenodd">
        <g id="home" transform="translate(-240.000000, -2980.000000)" fill="#FFFFFF">
            <g id="fingerprint" transform="translate(240.000000, 2980.000000)">
                <g id="Capa_1">
                    <g id="Group">
                        <path d="M138.501429,187.158103 L138.501429,165.219609 C138.501429,156.569445 131.464075,149.532091 122.81391,149.532091 C114.163746,149.532091 107.126392,156.569445 107.126392,165.219609 L107.126392,185.027271 C107.126392,208.896998 98.3327033,231.814126 82.3641446,249.556376 L60.347547,274.019559 C58.4977549,276.074957 58.6646434,279.240498 60.7200421,281.090958 C62.7747732,282.94075 65.9403142,282.773861 67.7907738,280.718463 L89.8073715,256.25528 C107.432799,236.670581 117.139701,211.374958 117.139701,185.027271 L117.139701,165.219609 C117.139701,162.090784 119.685085,159.5454 122.81391,159.5454 C125.942736,159.5454 128.488119,162.090784 128.488119,165.219609 L128.488119,187.158103 C128.488119,216.53248 117.606322,244.679226 97.846724,266.414784 L76.3855312,290.022163 C74.5257259,292.067548 74.6765931,295.235092 76.722646,297.094897 C77.6819211,297.96739 78.886856,298.396627 80.0884531,298.396627 C81.4502632,298.396627 82.8067329,297.84456 83.7947128,296.757782 L105.255238,273.150403 C126.694402,249.567724 138.501429,219.028465 138.501429,187.158103 L138.501429,187.158103 Z" id="Shape"></path>
                        <path d="M159.863156,165.219609 C159.863156,144.790455 143.243065,128.170363 122.81391,128.170363 C102.384756,128.170363 85.7646646,144.790455 85.7646646,165.219609 L85.7646646,185.027271 C85.7646646,203.611306 78.918231,221.453021 66.4863733,235.266048 L50.8342353,252.657831 C48.9844432,254.71323 49.1513317,257.878771 51.2067304,259.729231 C53.2621291,261.579023 56.4270025,261.410799 58.2774621,259.356736 L73.9296002,241.964952 C88.0189944,226.310144 95.7786418,206.089266 95.7786418,185.027271 L95.7786418,165.219609 C95.7786418,150.311794 107.906762,138.183673 122.814578,138.183673 C137.722393,138.183673 149.850514,150.311794 149.850514,165.219609 L149.850514,187.158103 C149.850514,221.856891 136.996094,255.107754 113.653735,280.783883 L95.546333,300.703026 C93.6858601,302.748412 93.8367273,305.915955 95.8827802,307.775761 C96.8420553,308.648254 98.0469902,309.077491 99.2485873,309.077491 C100.610397,309.077491 101.966867,308.525424 102.954847,307.438646 L121.062916,287.519503 C146.083507,259.996252 159.863156,224.35421 159.863156,187.158103 L159.863156,165.219609 L159.863156,165.219609 Z" id="Shape"></path>
                        <path d="M181.224883,165.219609 C181.224883,133.011465 155.022054,106.808636 122.81391,106.808636 C90.605766,106.808636 64.4029374,133.011465 64.4029374,165.219609 L64.4029374,185.027271 C64.4029374,198.324946 59.5037587,211.091916 50.6079345,220.97572 L36.5145349,236.635201 C34.6647429,238.6906 34.8316313,241.856141 36.88703,243.7066 C38.9417612,245.556392 42.1079697,245.388169 43.9577617,243.334105 L58.0511613,227.674624 C68.6045221,215.949038 74.416247,200.802906 74.416247,185.027271 L74.416247,165.219609 C74.416247,138.532804 96.127105,116.821946 122.81391,116.821946 C149.500716,116.821946 171.211573,138.532804 171.211573,165.219609 L171.211573,187.158103 C171.211573,227.183304 156.383865,265.53695 129.45941,295.152982 L124.448082,300.665643 C122.588277,302.711696 122.739144,305.878572 124.785197,307.738377 C125.744472,308.610203 126.950075,309.040108 128.151004,309.040108 C129.512814,309.040108 130.869284,308.488041 131.857264,307.401263 L136.867924,301.888602 C165.471277,270.42478 181.224216,229.679956 181.224216,187.158103 L181.224216,165.219609 L181.224883,165.219609 Z" id="Shape"></path>
                        <path d="M43.0412101,165.219609 C43.0412101,167.985285 45.2828564,170.226264 48.047865,170.226264 C50.8128735,170.226264 53.0545198,167.985285 53.0545198,165.219609 C53.0545198,148.360533 59.1753222,132.074887 70.2900959,119.361989 C81.3013987,106.767248 96.4141532,98.5309668 112.843992,96.170496 C115.580963,95.7773067 117.480822,93.2392665 117.087632,90.5029627 C116.694443,87.7659914 114.1544,85.868803 111.420099,86.2593221 C92.621779,88.9602455 75.3374715,98.3754267 62.7514088,112.771896 C50.0411811,127.309219 43.0412101,145.935977 43.0412101,165.219609 L43.0412101,165.219609 Z" id="Shape"></path>
                        <path d="M53.0545198,185.027271 C53.0545198,182.261594 50.8128735,180.020616 48.047865,180.020616 C45.2828564,180.020616 43.0412101,182.261594 43.0412101,185.027271 C43.0412101,193.039253 40.089954,200.730143 34.7308307,206.684724 L22.1948346,220.614573 C20.3450425,222.669304 20.511931,225.834845 22.5673297,227.685305 C23.5246021,228.546449 24.7215264,228.970346 25.9151129,228.970346 C27.2849337,228.970346 28.6500815,228.410936 29.6380614,227.31281 L42.1740575,213.383628 C49.1900498,205.587265 53.0545198,195.517214 53.0545198,185.027271 L53.0545198,185.027271 Z" id="Shape"></path>
                        <path d="M192.759548,229.720677 C190.083324,229.02375 187.349023,230.622542 186.648092,233.296763 C184.799635,240.358817 182.500579,247.379482 179.812339,254.163166 C178.793652,256.733916 180.051991,259.643784 182.622741,260.661804 C183.228213,260.901455 183.851708,261.01494 184.465858,261.01494 C186.458506,261.01494 188.343011,259.81668 189.122047,257.851401 C191.958483,250.691885 194.385042,243.284038 196.335635,235.831466 C197.035231,233.157245 195.433769,230.420941 192.759548,229.720677 L192.759548,229.720677 Z" id="Shape"></path>
                        <path d="M176.094731,105.895422 C174.037997,104.04563 170.872456,104.215189 169.023999,106.271255 C167.175542,108.327321 167.343766,111.492862 169.399832,113.341319 C184.12674,126.58025 192.572633,145.488716 192.572633,165.219609 L192.572633,187.158103 C192.572633,195.484504 191.998537,203.87499 190.865698,212.097252 C190.48853,214.836893 192.403074,217.362918 195.142048,217.740086 C195.37369,217.772128 195.603996,217.787482 195.831632,217.787482 C198.293571,217.787482 200.439757,215.9704 200.784882,213.463067 C201.979804,204.789538 202.585943,195.939108 202.585943,187.157435 L202.585943,165.219609 C202.58661,142.652947 192.930442,121.030206 176.094731,105.895422 L176.094731,105.895422 Z" id="Shape"></path>
                        <path d="M152.688953,102.186492 C153.383877,102.517599 154.116184,102.673807 154.83781,102.673807 C156.708963,102.673807 158.504016,101.619739 159.361823,99.8180109 C160.550736,97.3220266 159.489993,94.334055 156.994009,93.1458089 C149.780421,89.7112437 142.113563,87.3941638 134.206386,86.2586545 C131.46541,85.8681355 128.932042,87.7659914 128.538853,90.5022952 C128.145664,93.2385989 130.045522,95.7766391 132.782494,96.1698284 C139.690342,97.1624812 146.387244,99.1865048 152.688953,102.186492 L152.688953,102.186492 Z" id="Shape"></path>
                        <path d="M122.81391,64.0851817 C120.940754,64.0851817 119.046236,64.1372509 117.181757,64.2400542 C114.420754,64.3922565 112.305943,66.7540625 112.458145,69.5143982 C112.611015,72.2754014 114.970151,74.4015608 117.733157,74.2373425 C119.414725,74.1445525 121.123664,74.0978238 122.813243,74.0978238 C173.05736,74.0978238 213.93436,114.974156 213.93436,165.218941 L213.93436,187.157435 C213.93436,189.923111 216.176007,192.16409 218.941015,192.16409 C221.706024,192.16409 223.94767,189.923111 223.94767,187.157435 L223.94767,165.219609 C223.948338,109.454153 178.579367,64.0851817 122.81391,64.0851817 L122.81391,64.0851817 Z" id="Shape"></path>
                        <path d="M68.071814,91.2499556 C69.0577912,91.2499556 70.0544493,90.9589021 70.9256073,90.3534306 C79.2553458,84.5610648 88.4035055,80.2366501 98.1170834,77.4976762 C100.778621,76.7473455 102.328014,73.9810018 101.577683,71.3201317 C100.827352,68.6592615 98.0603413,67.1118714 95.4001387,67.8595319 C84.6124664,70.9009078 74.4549651,75.7026235 65.2093426,82.1311683 C62.9389915,83.7099335 62.3782462,86.8300807 63.9570113,89.0997643 C64.9296375,90.5002925 66.4877084,91.2499556 68.071814,91.2499556 L68.071814,91.2499556 Z" id="Shape"></path>
                        <path d="M31.6927926,185.027271 L31.6927926,165.219609 C31.6927926,141.928651 40.5131832,119.747167 56.5291382,102.759921 C58.4256591,100.747914 58.3328691,97.5797024 56.3208614,95.682514 C54.3088537,93.7853256 51.139975,93.8794507 49.2434541,95.8907908 C31.4684944,114.743183 21.6794829,139.365244 21.6794829,165.219609 L21.6794829,185.027271 C21.6794829,187.752893 20.6754817,190.369037 18.8530594,192.393729 L12.6795202,199.252846 C10.8297281,201.308244 10.9966166,204.473785 13.0520153,206.323578 C14.0086202,207.18539 15.206212,207.609286 16.3997985,207.609286 C17.7696193,207.609286 19.1340996,207.050544 20.122747,205.952417 L26.2962862,199.0933 C29.7762451,195.225493 31.6927926,190.230186 31.6927926,185.027271 L31.6927926,185.027271 Z" id="Shape"></path>
                        <path d="M238.951613,126.237127 C233.460314,109.918103 224.733381,95.175173 213.013136,82.417549 C211.141982,80.3815093 207.975106,80.2466634 205.939066,82.1178172 C203.903027,83.988971 203.768848,87.1558471 205.639335,89.1925543 C216.404978,100.910797 224.420298,114.448791 229.461666,129.430038 C230.165268,131.521484 232.11586,132.841239 234.205972,132.841239 C234.735342,132.841239 235.274058,132.756459 235.803429,132.578222 C238.423578,131.696383 239.833452,128.857276 238.951613,126.237127 L238.951613,126.237127 Z" id="Shape"></path>
                        <path d="M162.380502,49.2801696 C159.765693,48.3849797 156.917908,49.7795 156.022718,52.3963116 C155.127528,55.0124556 156.522716,57.8589057 159.13886,58.7534281 C170.178867,62.531116 180.543978,68.0037235 189.946476,75.0210509 C190.845671,75.6919426 191.895733,76.0150388 192.937118,76.0150388 C194.463146,76.0150388 195.970483,75.3201151 196.95379,74.0023635 C198.607989,71.7867519 198.151382,68.6492482 195.93577,66.995717 C185.697495,59.3562293 174.407822,53.3949723 162.380502,49.2801696 L162.380502,49.2801696 Z" id="Shape"></path>
                        <path d="M45.0211752,84.050386 C66.0818356,63.8575458 93.7092245,52.7367641 122.81391,52.7367641 C128.218427,52.7367641 133.652984,53.1259481 138.966046,53.8923 C141.70502,54.2914973 144.241725,52.3889685 144.636917,49.6519972 C145.032109,46.9150259 143.134253,44.3769856 140.397282,43.9817937 C134.610924,43.1473512 128.695061,42.7234544 122.81391,42.7234544 C91.1137746,42.7234544 61.0251142,54.8335511 38.0912974,76.8227791 C15.2289088,98.7439165 1.85847027,128.161018 0.44325584,159.655547 C0.3190908,162.417885 2.45793374,164.758329 5.21960454,164.881827 C5.29637324,164.885832 5.3724744,164.887167 5.44857555,164.887167 C8.11011325,164.887167 10.3257249,162.791048 10.4465522,160.105478 C11.7449446,131.19238 24.0239325,104.182479 45.0211752,84.050386 L45.0211752,84.050386 Z" id="Shape"></path>
                        <path d="M122.81391,21.3617272 C111.617695,21.3617272 100.460865,22.6594522 89.6538341,25.2188541 C86.962924,25.8557006 85.2987119,28.5539538 85.9355584,31.2441963 C86.5730725,33.9344388 89.2713256,35.5993184 91.9615681,34.9618044 C102.013596,32.582642 112.393393,31.3750369 122.81391,31.3750369 C159.526709,31.3750369 193.79626,46.001812 219.308837,72.5597794 C220.292144,73.5831396 221.604556,74.0984913 222.920304,74.0984913 C224.167963,74.0984913 225.417624,73.6352088 226.388247,72.7026359 C228.382231,70.786756 228.446316,67.6172098 226.530436,65.6238936 C213.237434,51.7861672 197.622679,40.9003645 180.120749,33.2708902 C161.992653,25.3683862 142.711692,21.3617272 122.81391,21.3617272 L122.81391,21.3617272 Z" id="Shape"></path>
                        <path d="M10.3517595,83.7139388 C11.2676436,84.4308917 12.355089,84.7786874 13.4351913,84.7786874 C14.921834,84.7786874 16.393123,84.1198116 17.3804353,82.8588021 C31.6494015,64.6332435 50.4343704,50.3375751 71.7039752,41.5158493 C74.2580367,40.4564411 75.4703147,37.5272143 74.4109066,34.9731528 C73.3514984,32.4190913 70.4209365,31.2054782 67.8682101,32.2662214 C45.0104944,41.7461554 24.8256648,57.1059049 9.49662286,76.6845954 C7.79169001,78.862824 8.17486599,82.0096735 10.3517595,83.7139388 L10.3517595,83.7139388 Z" id="Shape"></path>
                        <path d="M53.3929696,25.8510277 C54.1232737,25.8510277 54.8649262,25.6908148 55.5658578,25.3516973 C76.6458773,15.1735019 99.2712842,10.0133096 122.81391,10.0133096 C135.082217,10.0133096 147.301125,11.4565613 159.129514,14.3030115 C161.816419,14.9478686 164.521348,13.295005 165.168207,10.6067651 C165.815067,7.91852526 164.160201,5.2142641 161.471293,4.5674043 C148.87722,1.53670925 135.870598,0 122.81391,0 C97.7512638,0 73.6612435,5.49530433 51.2127384,16.3343782 C48.722762,17.5366429 47.6787076,20.529955 48.8809723,23.0199313 C49.7441196,24.8083084 51.5318292,25.8510277 53.3929696,25.8510277 L53.3929696,25.8510277 Z" id="Shape"></path>
                        <path d="M180.055329,20.9498464 C185.216856,23.0052451 190.325646,25.3683862 195.239511,27.9725142 C195.986504,28.3690413 196.788904,28.556624 197.579288,28.556624 C199.373673,28.556624 201.108646,27.5893383 202.007173,25.8930836 C203.301561,23.4498361 202.37099,20.4198086 199.927743,19.1247539 C194.696122,16.3524022 189.256225,13.8363913 183.759586,11.6474818 C181.19017,10.6241215 178.278967,11.8777879 177.255607,14.445868 C176.232914,17.0146157 177.486581,19.9271537 180.055329,20.9498464 L180.055329,20.9498464 Z" id="Shape"></path>
                    </g>
                </g>
            </g>
        </g>
    </g>
</svg>