<?xml version="1.0" encoding="UTF-8" standalone="no"?>
<svg width="104px" height="104px" viewBox="0 0 104 104" version="1.1" xmlns="http://www.w3.org/2000/svg" xmlns:xlink="http://www.w3.org/1999/xlink">
    <!-- Generator: Sketch 39.1 (31720) - http://www.bohemiancoding.com/sketch -->
    <title>icon-goal-college</title>
    <desc>Created with Sketch.</desc>
    <defs></defs>
    <g id="Page-1" stroke="none" stroke-width="1" fill="none" fill-rule="evenodd">
        <g id="icon-goal-college" fill="#FFFFFF">
            <g id="mortarboard-1" transform="translate(0.000000, 9.000000)">
                <path d="M100.022584,19.4101347 L57.828409,1.32632419 C54.118384,-0.263241895 49.8613865,-0.262204489 46.1474713,1.32943641 L3.96211471,19.4090973 C1.51850374,20.4566185 0,22.7583641 0,25.4167182 C0,28.0740349 1.51772569,30.3747431 3.96029925,31.4222643 L8.94659352,33.5590623 C8.94166584,33.6106733 8.93855362,33.6633217 8.93855362,33.7159701 L8.93855362,57.312818 C7.01053367,57.9643092 5.61859352,59.7888479 5.61859352,61.9336858 C5.61859352,63.1767581 6.0877606,64.3124589 6.85570075,65.1745436 C6.00554613,66.0073217 5.44119701,67.1378354 5.32474813,68.4185137 L4.13043392,81.5603791 C4.04821945,82.4577357 4.35010474,83.3545736 4.95802494,84.0200698 C5.56594514,84.6855661 6.43114214,85.067591 7.33264838,85.067591 L13.656419,85.067591 C14.5581845,85.067591 15.4233815,84.6855661 16.0310424,84.0200698 C16.6389626,83.3545736 16.9408479,82.4577357 16.8588928,81.5603791 L15.6643192,68.4185137 C15.5478703,67.1378354 14.9835212,66.0083591 14.1325885,65.1745436 C14.9015661,64.3124589 15.3707332,63.1767581 15.3707332,61.9336858 C15.3707332,59.7888479 13.9777556,57.9643092 12.0507731,57.312818 L12.0507731,34.8900549 L20.5647681,38.5393915 C20.559581,38.5899651 20.5577656,38.6426135 20.5577656,38.6952618 L20.5577656,50.5759002 C20.5577656,55.5349626 23.952419,60.1221147 30.1182444,63.4926484 C35.9860748,66.7013466 43.7533965,68.4690873 51.9909227,68.4690873 C60.2274115,68.4690873 67.9957706,66.7013466 73.863601,63.4926484 C80.0281297,60.1221147 83.4240798,55.5349626 83.4240798,50.5759002 L83.4240798,38.6952618 C83.4240798,38.6426135 83.4209676,38.5899651 83.4160399,38.5393915 L100.019471,31.4233017 C102.463082,30.3757805 103.981845,28.0729975 103.981845,25.4146434 C103.981845,22.7573267 102.465157,20.4566185 100.022584,19.4101347 L100.022584,19.4101347 Z M13.7334464,81.9208778 C13.7020648,81.9553716 13.6686085,81.9553716 13.656419,81.9553716 L7.33264838,81.9553716 C7.3196808,81.9553716 7.28726185,81.9553716 7.2558803,81.9208778 C7.22527681,81.8874214 7.22838903,81.8539651 7.22942643,81.8417756 L8.42374065,68.7001696 C8.52203491,67.6220449 9.41264838,66.8087182 10.4946633,66.8087182 C11.5766783,66.8087182 12.4670324,67.6220449 12.5653267,68.7001696 L13.7599002,81.8417756 C13.7609377,81.8539651 13.7637905,81.8874214 13.7334464,81.9208778 L13.7334464,81.9208778 Z M10.4946633,63.6964988 C9.52209476,63.6964988 8.73081297,62.905217 8.73081297,61.9336858 C8.73081297,60.9611172 9.52209476,60.1698354 10.4946633,60.1698354 C11.4672319,60.1698354 12.2585137,60.9611172 12.2585137,61.9336858 C12.2585137,62.905217 11.4672319,63.6964988 10.4946633,63.6964988 L10.4946633,63.6964988 Z M80.3118603,43.9370175 C80.3118603,47.9611172 77.0001995,51.8897756 71.2254763,54.7154115 C70.4533865,55.0932868 70.134384,56.0253965 70.5122594,56.7972269 C70.7827631,57.3493865 71.3359601,57.6694264 71.911202,57.6694264 C72.1412469,57.6694264 72.374404,57.6188529 72.5940748,57.5104439 C75.797586,55.943182 78.363611,54.0335761 80.1922993,51.910005 C79.6097955,55.191581 76.8845287,58.2947232 72.3712918,60.7624539 C66.9531771,63.7247681 59.7146733,65.3568678 51.9909227,65.3568678 C44.2671721,65.3568678 37.0294464,63.7247681 31.611591,60.7624539 C27.1144339,58.3038005 24.3922793,55.2138853 23.7955112,51.9455362 C25.3677007,53.7589227 27.4902344,55.4174763 30.1182444,56.8540249 C35.9860748,60.0624638 43.7544339,61.8291671 51.9909227,61.8291671 C54.2947431,61.8291671 56.5933766,61.6893766 58.8222444,61.4129077 C59.6752519,61.3065736 60.2800599,60.5295561 60.1747631,59.677586 C60.0681696,58.8243192 59.2932269,58.2187332 58.439182,58.3240299 C56.3371372,58.5854564 54.1679202,58.7169476 51.9909227,58.7169476 C44.2671721,58.7169476 37.0294464,57.0858853 31.611591,54.122793 C26.4904339,51.3225736 23.669985,47.7056559 23.669985,43.9370175 L23.669985,39.869606 L46.1544738,49.5060748 C48.0072818,50.3002095 49.9980648,50.6975362 51.9888479,50.6975362 C53.9827431,50.6975362 55.9763791,50.2991721 57.8343741,49.5029626 L80.3118603,39.869606 L80.3118603,43.9370175 Z M98.7937756,28.562394 L56.6086783,46.6420549 C53.673596,47.8991322 50.3100648,47.901207 47.3804289,46.6451671 L15.1396509,32.8274314 L44.6803192,27.6901945 C46.0094963,29.262384 48.7166085,30.2917506 51.9909227,30.2917506 C56.6631421,30.2917506 60.1866933,28.1956708 60.1866933,25.4167182 C60.1866933,22.6367282 56.6631421,20.5406484 51.9909227,20.5406484 C47.7471521,20.5406484 44.4523491,22.270005 43.8830723,24.6690075 L10.2283092,30.5225736 C10.1289776,30.5399501 10.0345736,30.5661446 9.94457855,30.6006384 L5.18599501,28.5613566 C3.88716209,28.0050474 3.11221945,26.8288878 3.11221945,25.4167182 C3.11221945,24.0035112 3.8881995,22.8263142 5.18806983,22.2689676 L47.3731671,4.18930673 C48.8421347,3.56037905 50.4174364,3.24630424 51.9929975,3.24630424 C53.5662244,3.24630424 55.1386733,3.55934165 56.6024539,4.18645387 L98.7968878,22.270005 C100.094424,22.8273516 100.869626,24.0024738 100.869626,25.4146434 C100.869626,26.8288878 100.093646,28.0050474 98.7937756,28.562394 L98.7937756,28.562394 Z M46.9071122,25.4167182 C46.9071122,24.9628529 48.6556608,23.6528678 51.9909227,23.6528678 C55.3259252,23.6528678 57.0744738,24.9628529 57.0744738,25.4167182 C57.0744738,25.8695461 55.3259252,27.1805686 51.9909227,27.1805686 C48.6556608,27.1805686 46.9071122,25.8695461 46.9071122,25.4167182 L46.9071122,25.4167182 Z" id="Fill-1"></path>
                <path d="M63.6080599,60.5487481 C63.7245087,60.5487481 63.841995,60.5355212 63.9594813,60.5082893 C65.1348628,60.2367481 66.2915711,59.9216359 67.3990025,59.5709925 C68.2175162,59.3126783 68.672419,58.4373666 68.4130673,57.6188529 C68.1537157,56.7993017 67.2794414,56.344399 66.4598903,56.6037506 C65.4305237,56.930015 64.3536958,57.2228229 63.2594913,57.4759501 C62.4228229,57.6694264 61.8999701,58.5042793 62.0934464,59.3422444 C62.2596908,60.0614264 62.8997706,60.5487481 63.6080599,60.5487481 L63.6080599,60.5487481 Z" id="Fill-3"></path>
            </g>
        </g>
    </g>
</svg>