<?xml version="1.0" encoding="UTF-8" standalone="no"?>
<svg width="80px" height="80px" viewBox="0 0 80 80" version="1.1" xmlns="http://www.w3.org/2000/svg" xmlns:xlink="http://www.w3.org/1999/xlink">
    <!-- Generator: Sketch 39.1 (31720) - http://www.bohemiancoding.com/sketch -->
    <title>icon-goal-car</title>
    <desc>Created with Sketch.</desc>
    <defs>
        <polygon id="path-1" points="0.0126315789 0.0922105263 0.0126315789 50.1054737 79.8287368 50.1054737 79.8287368 0.0922105263 0.0126315789 0.0922105263"></polygon>
    </defs>
    <g id="Page-1" stroke="none" stroke-width="1" fill="none" fill-rule="evenodd" opacity="0.64">
        <g id="icon-goal-car">
            <g id="sport-car" transform="translate(0.000000, 15.000000)">
                <path d="M55.6734737,16.7764211 L24.1545263,16.7764211 C23.4572632,16.7764211 22.8913684,17.3423158 22.8913684,18.0395789 C22.8913684,18.7370526 23.4572632,19.3027368 24.1545263,19.3027368 L55.6743158,19.3027368 C56.3717895,19.3027368 56.9374737,18.7370526 56.9374737,18.0395789 C56.9374737,17.3423158 56.3717895,16.7764211 55.6734737,16.7764211 L55.6734737,16.7764211 Z" id="Fill-1" fill="#FFFFFF"></path>
                <path d="M10.9869474,22.5027368 L6.31831579,22.5027368 C5.62084211,22.5027368 5.05515789,23.0684211 5.05515789,23.7658947 C5.05515789,24.464 5.62084211,25.0290526 6.31831579,25.0290526 L10.9869474,25.0290526 C13.2936842,25.0290526 15.2393684,26.608 15.7993684,28.7410526 L6.64231579,28.7410526 C5.944,28.7410526 5.37915789,29.3069474 5.37915789,30.0042105 C5.37915789,30.7016842 5.944,31.2673684 6.64231579,31.2673684 L17.2244211,31.2673684 C17.9227368,31.2673684 18.4875789,30.7016842 18.4875789,30.0042105 C18.4884211,25.8677895 15.1233684,22.5027368 10.9869474,22.5027368 L10.9869474,22.5027368 Z" id="Fill-2" fill="#FFFFFF"></path>
                <g id="Group-6">
                    <mask id="mask-2" fill="white">
                        <use xlink:href="#path-1"></use>
                    </mask>
                    <g id="Clip-4"></g>
                    <path d="M68.8412632,25.0290526 L73.5098947,25.0290526 C74.2071579,25.0290526 74.7730526,24.464 74.7730526,23.7658947 C74.7730526,23.0684211 74.2071579,22.5027368 73.5098947,22.5027368 L68.8412632,22.5027368 C64.7056842,22.5027368 61.3404211,25.8677895 61.3404211,30.0042105 C61.3404211,30.7016842 61.9063158,31.2673684 62.6035789,31.2673684 L73.1858947,31.2673684 C73.884,31.2673684 74.4490526,30.7016842 74.4490526,30.0042105 C74.4490526,29.3069474 73.884,28.7410526 73.1858947,28.7410526 L64.0288421,28.7410526 C64.5896842,26.608 66.5345263,25.0290526 68.8412632,25.0290526 L68.8412632,25.0290526 Z" id="Fill-3" fill="#FFFFFF" mask="url(#mask-2)"></path>
                    <path d="M77.2507368,16.9509474 C75.4802105,15.1004211 73.0755789,14.0816842 70.4802105,14.0816842 C70.3667368,14.0816842 70.2532632,14.0972632 70.144,14.1275789 L66.0846316,15.2486316 L60.1044211,3.76 C59.0336842,1.70336842 56.3783158,0.0922105263 54.06,0.0922105263 L25.768,0.0922105263 C23.4498947,0.0922105263 20.7943158,1.70336842 19.7237895,3.76 L13.7442105,15.2486316 L9.68421053,14.1275789 C9.57473684,14.0972632 9.46210526,14.0816842 9.34778947,14.0816842 C6.75242105,14.0816842 4.34778947,15.1004211 2.57726316,16.9509474 C0.806736842,18.8018947 -0.105263158,21.2486316 0.00989473684,23.8496842 L0.925894737,42.1261053 C0.959789474,42.7987368 1.51473684,43.3267368 2.18842105,43.3267368 L2.60947368,43.3267368 L2.60947368,48.8423158 C2.60947368,49.5395789 3.17431579,50.1054737 3.87263158,50.1054737 L17.1627368,50.1054737 C17.8602105,50.1054737 18.4258947,49.5395789 18.4258947,48.8423158 L18.4258947,47.1162105 C18.4258947,46.4178947 17.8602105,45.8530526 17.1627368,45.8530526 C16.4646316,45.8530526 15.8995789,46.4178947 15.8995789,47.1162105 L15.8995789,47.5791579 L5.13494737,47.5791579 L5.13494737,43.3267368 L74.6932632,43.3267368 L74.6932632,47.5791579 L63.9292632,47.5791579 L63.9292632,47.1162105 C63.9292632,46.4178947 63.3635789,45.8530526 62.6661053,45.8530526 C61.9688421,45.8530526 61.4029474,46.4178947 61.4029474,47.1162105 L61.4029474,48.8423158 C61.4029474,49.5395789 61.9688421,50.1054737 62.6661053,50.1054737 L75.9564211,50.1054737 C76.6536842,50.1054737 77.2195789,49.5395789 77.2195789,48.8423158 L77.2195789,43.3267368 L77.6406316,43.3267368 C78.3132632,43.3267368 78.8684211,42.7987368 78.9021053,42.1261053 L79.8191579,23.8423158 C79.9334737,21.2486316 79.0214737,18.8018947 77.2507368,16.9509474 L77.2507368,16.9509474 Z M77.2951579,23.7229474 L76.4391579,40.7995789 L3.38905263,40.7995789 L2.53284211,23.7305263 C2.44989474,21.8324211 3.11347368,20.0454737 4.40294737,18.6974737 C5.65536842,17.3892632 7.34694737,16.6515789 9.18336842,16.6103158 L14.0435789,17.9524211 C14.0461053,17.9532632 14.0492632,17.9541053 14.0526316,17.9549474 L18.7656842,19.2576842 C19.4374737,19.4433684 20.1341053,19.0486316 20.32,18.376 C20.5048421,17.7042105 20.1109474,17.0084211 19.4383158,16.8225263 L16.2343158,15.9368421 L21.9646316,4.92694737 C22.6052632,3.69747368 24.3823158,2.61852632 25.768,2.61852632 L54.06,2.61852632 C55.4465263,2.61852632 57.2235789,3.69747368 57.8635789,4.92694737 L63.5945263,15.9368421 L60.3905263,16.8225263 C59.7178947,17.0084211 59.3231579,17.7042105 59.5090526,18.376 C59.6949474,19.0486316 60.3905263,19.4425263 61.0633684,19.2576842 L70.6446316,16.6103158 C72.4810526,16.6515789 74.1734737,17.3892632 75.4252632,18.6974737 C76.7147368,20.0454737 77.3791579,21.8324211 77.2951579,23.7229474 L77.2951579,23.7229474 Z" id="Fill-5" fill="#FFFFFF" mask="url(#mask-2)"></path>
                </g>
                <path d="M70.4802105,11.5553684 L74.8808421,11.5553684 C75.5781053,11.5553684 76.144,10.9903158 76.144,10.2922105 C76.144,9.59473684 75.5781053,9.02905263 74.8808421,9.02905263 L70.4802105,9.02905263 C69.7829474,9.02905263 69.2170526,9.59473684 69.2170526,10.2922105 C69.2170526,10.9903158 69.7829474,11.5553684 70.4802105,11.5553684 L70.4802105,11.5553684 Z" id="Fill-7" fill="#FFFFFF"></path>
                <path d="M4.94736842,11.5553684 L9.34778947,11.5553684 C10.0461053,11.5553684 10.6109474,10.9903158 10.6109474,10.2922105 C10.6109474,9.59473684 10.0461053,9.02905263 9.34778947,9.02905263 L4.94736842,9.02905263 C4.25010526,9.02905263 3.68421053,9.59473684 3.68421053,10.2922105 C3.68421053,10.9903158 4.25010526,11.5553684 4.94736842,11.5553684 L4.94736842,11.5553684 Z" id="Fill-8" fill="#FFFFFF"></path>
                <path d="M53.9244211,32.3711579 L25.9037895,32.3711579 C25.2063158,32.3711579 24.6406316,32.9368421 24.6406316,33.6343158 L24.6406316,37.0101053 C24.6406316,37.7082105 25.2063158,38.2732632 25.9037895,38.2732632 C26.6018947,38.2732632 27.1669474,37.7082105 27.1669474,37.0101053 L27.1669474,34.8974737 L52.6612632,34.8974737 L52.6612632,37.0101053 C52.6612632,37.7082105 53.2269474,38.2732632 53.9244211,38.2732632 C54.6216842,38.2732632 55.1875789,37.7082105 55.1875789,37.0101053 L55.1875789,33.6343158 C55.1875789,32.9368421 54.6216842,32.3711579 53.9244211,32.3711579 L53.9244211,32.3711579 Z" id="Fill-9" fill="#FFFFFF"></path>
                <path d="M46.9193684,26.0395789 C47.6168421,26.0395789 48.1825263,25.4738947 48.1825263,24.7764211 C48.1825263,24.0791579 47.6168421,23.5132632 46.9193684,23.5132632 L32.9086316,23.5132632 C32.2113684,23.5132632 31.6454737,24.0791579 31.6454737,24.7764211 C31.6454737,25.4738947 32.2113684,26.0395789 32.9086316,26.0395789 L46.9193684,26.0395789 Z" id="Fill-10" fill="#FFFFFF"></path>
            </g>
        </g>
    </g>
</svg>