<?xml version="1.0" encoding="UTF-8" standalone="no"?>
<svg width="800px" height="800px" viewBox="0 0 800 800" version="1.1" xmlns="http://www.w3.org/2000/svg" xmlns:xlink="http://www.w3.org/1999/xlink">
    <!-- Generator: Sketch 39.1 (31720) - http://www.bohemiancoding.com/sketch -->
    <title>img-track-progress</title>
    <desc>Created with Sketch.</desc>
    <defs>
        <path d="M400,720 C576.73112,720 720,576.73112 720,400 C720,223.26888 576.73112,80 400,80 C223.26888,80 80,223.26888 80,400 C80,576.73112 223.26888,720 400,720 Z" id="path-1"></path>
        <filter x="-50%" y="-50%" width="200%" height="200%" filterUnits="objectBoundingBox" id="filter-2">
            <feOffset dx="0" dy="4" in="SourceAlpha" result="shadowOffsetOuter1"></feOffset>
            <feGaussianBlur stdDeviation="6" in="shadowOffsetOuter1" result="shadowBlurOuter1"></feGaussianBlur>
            <feColorMatrix values="0 0 0 0 0   0 0 0 0 0   0 0 0 0 0  0 0 0 0.24 0" type="matrix" in="shadowBlurOuter1"></feColorMatrix>
        </filter>
    </defs>
    <g id="Page-1" stroke="none" stroke-width="1" fill="none" fill-rule="evenodd">
        <g id="img-track-progress">
            <g id="Group">
                <g id="Oval">
                    <use fill="black" fill-opacity="1" filter="url(#filter-2)" xlink:href="#path-1"></use>
                    <use fill="#F7F9FA" fill-rule="evenodd" xlink:href="#path-1"></use>
                </g>
                <path d="M400,720 C576.73112,720 720,576.73112 720,400 C720,223.26888 576.73112,80 400,80 L400,400 C400,400 400,400 97.4383213,295.538457 C86.1372966,328.276483 80,363.42152 80,400 C80,576.73112 223.26888,720 400,720 Z" id="Oval" fill="#1ABD7D"></path>
                <rect id="Rectangle-6" fill="#369A78" x="398" y="80" width="2" height="640"></rect>
                <rect id="Rectangle-6" fill="#369A78" transform="translate(400.000000, 400.000000) rotate(-270.000000) translate(-400.000000, -400.000000) " x="399" y="80" width="2" height="640"></rect>
                <polygon id="Rectangle-6" fill="#369A78" transform="translate(430.552612, 431.552612) rotate(-225.000000) translate(-430.552612, -431.552612) " points="429.552612 156.174743 431.552612 156.174743 431.552612 706.93048 429.552612 699.53485"></polygon>
                <polygon id="Rectangle-6" fill="#DDE1E2" transform="translate(368.963501, 369.963501) rotate(-225.000000) translate(-368.963501, -369.963501) " points="367.963501 94.9688827 369.963501 92.4415253 369.963501 647.485477 367.963501 647.485477"></polygon>
                <rect id="Rectangle-6" fill="#369A78" transform="translate(398.981277, 400.000000) rotate(-135.000000) translate(-398.981277, -400.000000) " x="397.981277" y="80" width="2" height="640"></rect>
                <path d="M798,400 C798,180.19067 619.80933,2 400,2 C180.19067,2 2,180.19067 2,400 C2,619.80933 180.19067,798 400,798 C619.80933,798 798,619.80933 798,400 Z M0,400 C0,179.0861 179.0861,0 400,0 C620.9139,0 800,179.0861 800,400 C800,620.9139 620.9139,800 400,800 C179.0861,800 0,620.9139 0,400 Z" id="Oval" fill="#1ABD7D"></path>
                <path d="M400,640 C532.54834,640 640,532.54834 640,400 C640,267.45166 532.54834,160 400,160 C267.45166,160 160,267.45166 160,400 C160,532.54834 267.45166,640 400,640 Z" id="Oval" fill="#FFFFFF"></path>
            </g>
            <g id="Group-20" transform="translate(267.000000, 328.000000)">
                <path d="M35.15625,36.6875 C38.5729338,36.6875 41.2187406,35.7500094 43.09375,33.875 C45.0520931,31.9166569 46.03125,29.3541825 46.03125,26.1875 C46.03125,22.85415 45.0937594,20.2916756 43.21875,18.5 C41.3020738,16.7083244 38.6146006,15.8125 35.15625,15.8125 C31.9062338,15.8125 29.2604269,16.7499906 27.21875,18.625 C25.3437406,20.4166756 24.40625,22.9374837 24.40625,26.1875 C24.40625,29.3541825 25.3854069,31.9166569 27.34375,33.875 C29.2187594,35.7500094 31.8229,36.6875 35.15625,36.6875 L35.15625,36.6875 Z M35.15625,77.125 C39.15627,77.125 42.2708222,76.0625106 44.5,73.9375 C46.7291778,71.8124894 47.84375,68.8125194 47.84375,64.9375 C47.84375,61.1874813 46.7291778,58.2500106 44.5,56.125 C42.2708222,53.9999894 39.15627,52.9375 35.15625,52.9375 C31.2395638,52.9375 28.1666778,53.9999894 25.9375,56.125 C23.7083222,58.2500106 22.59375,61.1978978 22.59375,64.96875 C22.59375,68.7396022 23.7187387,71.6874894 25.96875,73.8125 C28.3437619,76.0208444 31.4062313,77.125 35.15625,77.125 L35.15625,77.125 Z M51.28125,44.125 C57.0729456,45.1666719 61.6770663,47.7708125 65.09375,51.9375 C68.4271,56.0208538 70.09375,61.3124675 70.09375,67.8125 C70.09375,76.5208769 67.0208641,83.3020591 60.875,88.15625 C54.7291359,93.0104409 46.156305,95.4375 35.15625,95.4375 C24.2395288,95.4375 15.7083641,93.0000244 9.5625,88.125 C3.41663594,83.2499756 0.34375,76.47921 0.34375,67.8125 C0.34375,61.3124675 2.0104,56.0208538 5.34375,51.9375 C8.76043375,47.7708125 13.3645544,45.1666719 19.15625,44.125 C14.3645594,42.9999944 10.6562631,40.77085 8.03125,37.4375 C5.40623687,34.1874837 4.07291688,30.1458575 4.03125,25.3125 C4.03125,17.5624612 6.76038937,11.5000219 12.21875,7.125 C17.7604444,2.791645 25.4062012,0.604166875 35.15625,0.5625 C45.0312994,0.5625 52.7187225,2.74997813 58.21875,7.125 C63.6771106,11.458355 66.40625,17.5207944 66.40625,25.3125 C66.40625,30.1875244 65.07293,34.2291506 62.40625,37.4375 C59.7812369,40.77085 56.0729406,42.9999944 51.28125,44.125 L51.28125,44.125 Z M147.53125,93 L77.65625,93 L118.71875,44.375 C121.177096,41.5416525 123.010411,38.8437628 124.21875,36.28125 C125.427089,33.7187372 126.03125,31.5000094 126.03125,29.625 C126.03125,26.4583175 125.010427,23.8541769 122.96875,21.8125 C120.927073,19.7708231 118.281266,18.75 115.03125,18.75 C110.947896,18.75 107.927093,19.9999875 105.96875,22.5 C103.927073,25.0416794 102.885417,28.6666431 102.84375,33.375 L102.84375,34.5 L80.84375,34.5 L80.84375,33.875 C80.84375,23.6249488 83.8853863,15.4791969 89.96875,9.4375 C95.9271131,3.47913687 104.197864,0.479166875 114.78125,0.4375 C124.864634,0.4375 133.010386,3.08330688 139.21875,8.375 C145.343781,13.6250262 148.40625,20.6666225 148.40625,29.5 C148.40625,33.6666875 147.427093,37.8541456 145.46875,42.0625 C143.510407,46.1458538 140.364605,50.5833094 136.03125,55.375 L119.53125,73.5625 L147.53125,73.5625 L147.53125,93 Z M181.84375,41.4375 C184.593764,41.4375 186.593744,40.2291788 187.84375,37.8125 C189.135423,35.3541544 189.78125,31.3541944 189.78125,25.8125 C189.78125,20.3124725 189.135423,16.3333456 187.84375,13.875 C186.552077,11.4166544 184.54168,10.1875 181.8125,10.1875 C179.08332,10.1875 177.093756,11.4166544 175.84375,13.875 C174.552077,16.2916787 173.90625,20.2708056 173.90625,25.8125 C173.90625,31.3541944 174.552077,35.3541544 175.84375,37.8125 C177.093756,40.2291788 179.093736,41.4375 181.84375,41.4375 L181.84375,41.4375 Z M205.40625,25.8125 C205.40625,33.3125375 203.260438,39.4166431 198.96875,44.125 C194.718729,48.7500231 189.010452,51.0520834 181.84375,51.03125 C174.677048,51.0104166 168.958355,48.7396059 164.6875,44.21875 C160.416645,39.6978941 158.28125,33.5625387 158.28125,25.8125 C158.28125,18.2291287 160.427062,12.0833569 164.71875,7.375 C168.885437,2.83331062 174.593714,0.5625 181.84375,0.5625 C189.093786,0.5625 194.802063,2.83331062 198.96875,7.375 C203.260438,12.0833569 205.40625,18.2291287 205.40625,25.8125 L205.40625,25.8125 Z M245.46875,85.8125 C248.218764,85.8125 250.22916,84.5833456 251.5,82.125 C252.77084,79.6666544 253.40625,75.6458612 253.40625,70.0625 C253.40625,64.5624725 252.760423,60.6041788 251.46875,58.1875 C250.177077,55.7291544 248.16668,54.5 245.4375,54.5 C242.70832,54.5 240.718756,55.7291544 239.46875,58.1875 C238.177077,60.6041788 237.53125,64.5624725 237.53125,70.0625 C237.53125,75.6041944 238.16666,79.6145709 239.4375,82.09375 C240.70834,84.5729291 242.718736,85.8125 245.46875,85.8125 L245.46875,85.8125 Z M268.90625,70.0625 C268.90625,77.6458712 266.760438,83.7916431 262.46875,88.5 C258.218729,93.1250231 252.552119,95.4375 245.46875,95.4375 C238.218714,95.4375 232.489604,93.1250231 228.28125,88.5 C224.031229,83.7916431 221.90625,77.6458712 221.90625,70.0625 C221.90625,62.3124612 224.041645,56.1771059 228.3125,51.65625 C232.583355,47.1353941 238.302047,44.875 245.46875,44.875 C252.635452,44.875 258.343729,47.1249775 262.59375,51.625 C266.802104,56.0833556 268.90625,62.2291275 268.90625,70.0625 L268.90625,70.0625 Z M179.78125,95.4375 L234.71875,0.5625 L246.46875,0.5625 L191.15625,95.4375 L179.78125,95.4375 Z" id="82%" fill="#1ABD7D"></path>
                <g id="Group-21" transform="translate(51.000000, 135.000000)">
                    <path d="M79.71875,12.3125 C78.6562447,11.3749953 77.494798,10.6510442 76.234375,10.140625 C75.0781192,9.67187266 73.8281317,9.4375 72.484375,9.4375 C69.5364436,9.4375 67.1354259,10.3749906 65.28125,12.25 C63.4270741,14.1250094 62.5,16.5676933 62.5,19.578125 C62.5,21.0885492 62.7239561,22.4531189 63.171875,23.671875 C63.5989605,24.8489642 64.2916619,25.9166619 65.25,26.875 C66.1875047,27.8125047 67.2317651,28.5156227 68.3828125,28.984375 C69.5338599,29.4531273 70.8072847,29.6875 72.203125,29.6875 C73.5156316,29.6875 74.7916605,29.4635439 76.03125,29.015625 C77.2500061,28.5677061 78.4374942,27.9062544 79.59375,27.03125 L79.59375,29.46875 C78.4374942,30.1770869 77.2500061,30.7083316 76.03125,31.0625 C74.8541608,31.4270852 73.6093816,31.609375 72.296875,31.609375 C70.6093666,31.609375 69.0312573,31.312503 67.5625,30.71875 C65.9791587,30.0833302 64.6770884,29.2500052 63.65625,28.21875 C62.5208277,27.0833277 61.6770861,25.8020905 61.125,24.375 C60.5520805,22.9062427 60.265625,21.3073003 60.265625,19.578125 C60.265625,17.9322834 60.562497,16.3437577 61.15625,14.8125 C61.7291695,13.3229092 62.5729111,12.041672 63.6875,10.96875 C64.7500053,9.94791156 66.0416591,9.12500312 67.5625,8.5 C69.0312573,7.90624703 70.6093666,7.609375 72.296875,7.609375 C73.7864658,7.609375 75.1406189,7.81249797 76.359375,8.21875 C77.6406314,8.64583547 78.7708284,9.24478781 79.75,10.015625 L79.71875,12.3125 Z M90.265625,29.8125 C91.7760492,29.8125 93.067703,29.2604222 94.140625,28.15625 C95.1822969,27.0937447 95.7083333,25.7500081 95.71875,24.125 C95.71875,22.4791584 95.1927136,21.1250053 94.140625,20.0625 C93.0781197,18.9791613 91.7890701,18.4348959 90.2734375,18.4296875 C88.7578049,18.4244791 87.4687553,18.9687445 86.40625,20.0625 C85.3645781,21.1250053 84.8385417,22.4791584 84.828125,24.125 C84.828125,25.7500081 85.3541614,27.0937447 86.40625,28.15625 C87.4687553,29.2604222 88.7552008,29.8125 90.265625,29.8125 L90.265625,29.8125 Z M90.2109375,31.609375 C89.2057241,31.609375 88.2552128,31.4166686 87.359375,31.03125 C86.4635372,30.6458314 85.6406287,30.083337 84.890625,29.34375 C84.1822881,28.6562466 83.6510434,27.8645878 83.296875,26.96875 C82.9322898,26.0520787 82.75,25.093755 82.75,24.09375 C82.75,23.0729116 82.9427064,22.1093795 83.328125,21.203125 C83.734377,20.2656203 84.2656217,19.4687533 84.921875,18.8125 C85.6093784,18.1249966 86.4218703,17.578127 87.359375,17.171875 C88.2135459,16.8072898 89.1614531,16.625 90.203125,16.625 C91.2656303,16.625 92.2395789,16.8072898 93.125,17.171875 C94.0625047,17.5572936 94.8802048,18.1041631 95.578125,18.8125 C96.2656284,19.5000034 96.812498,20.307287 97.21875,21.234375 C97.6041686,22.1302128 97.796875,23.0833283 97.796875,24.09375 C97.796875,25.1354219 97.6145852,26.0833291 97.25,26.9375 C96.8645814,27.8333378 96.3177119,28.6354131 95.609375,29.34375 C94.8593712,30.0937537 94.0312545,30.6562481 93.125,31.03125 C92.1874953,31.4166686 91.2161509,31.609375 90.2109375,31.609375 L90.2109375,31.609375 Z M103.859375,31 L101.875,31 L101.875,6.78125 L103.859375,6.78125 L103.859375,31 Z M111.171875,31 L109.1875,31 L109.1875,6.78125 L111.171875,6.78125 L111.171875,31 Z M126,22.484375 C125.916666,21.2447855 125.489587,20.2656286 124.71875,19.546875 C123.968746,18.8385381 122.95834,18.484375 121.6875,18.484375 C120.531244,18.484375 119.5599,18.8463505 118.773438,19.5703125 C117.986975,20.2942745 117.526042,21.2656189 117.390625,22.484375 L126,22.484375 Z M128.28125,24.125 L117.265625,24.125 C117.328125,25.9166756 117.776038,27.3229116 118.609375,28.34375 C119.442712,29.3645884 120.57291,29.875 122,29.875 C123.000005,29.875 123.895829,29.5989611 124.6875,29.046875 C125.458337,28.5052056 126.098956,27.6718806 126.609375,26.546875 L128.375,27.515625 C127.666663,28.9010486 126.802088,29.9322883 125.78125,30.609375 C124.781245,31.2656283 123.520841,31.5989583 122,31.609375 C119.96874,31.609375 118.325527,30.9270902 117.070312,29.5625 C115.815098,28.1979098 115.1875,26.4166777 115.1875,24.21875 C115.1875,21.9374886 115.807285,20.1015695 117.046875,18.7109375 C118.286465,17.3203055 119.916657,16.625 121.9375,16.625 C123.854176,16.625 125.390619,17.2656186 126.546875,18.546875 C127.703131,19.8281314 128.28125,21.5468642 128.28125,23.703125 L128.28125,24.125 Z M144.453125,17.140625 L144.453125,28.59375 C144.453125,30.3020919 144.401042,31.692703 144.296875,32.765625 C144.213541,33.7031297 144.052085,34.4166642 143.8125,34.90625 C143.333331,35.9270884 142.598963,36.6927058 141.609375,37.203125 C140.619787,37.7135442 139.369799,37.96875 137.859375,37.96875 C136.026032,37.96875 134.588547,37.6093786 133.546875,36.890625 C132.54687,36.1822881 131.927085,35.1041739 131.6875,33.65625 L134.09375,33.65625 C134.239584,34.5104209 134.651038,35.1614561 135.328125,35.609375 C135.963545,36.0364605 136.859369,36.25 138.015625,36.25 C138.848962,36.25 139.619788,36.0989598 140.328125,35.796875 C141.005212,35.5052069 141.515623,35.0885444 141.859375,34.546875 C142.067709,34.2031233 142.229166,33.8020856 142.34375,33.34375 C142.447917,32.8541642 142.5,32.1562545 142.5,31.25 L142.5,30.515625 L142.5,28.4375 C142.093748,29.4166716 141.442713,30.1979137 140.546875,30.78125 C139.692704,31.3333361 138.682298,31.609375 137.515625,31.609375 C135.557282,31.609375 134.000006,30.9375067 132.84375,29.59375 C131.687494,28.2499933 131.109375,26.4270948 131.109375,24.125 C131.109375,21.8854055 131.708327,20.0729236 132.90625,18.6875 C134.083339,17.3229098 135.651032,16.6354167 137.609375,16.625 C138.744797,16.625 139.734371,16.9062472 140.578125,17.46875 C141.473963,18.0416695 142.114581,18.7968703 142.5,19.734375 L142.5,17.140625 L144.453125,17.140625 Z M137.828125,18.390625 C136.401035,18.390625 135.270837,18.9036407 134.4375,19.9296875 C133.604163,20.9557343 133.1875,22.3645744 133.1875,24.15625 C133.1875,25.9479256 133.583329,27.3333284 134.375,28.3125 C135.187504,29.312505 136.276035,29.8125 137.640625,29.8125 C139.109382,29.8125 140.291662,29.2916719 141.1875,28.25 C142.083338,27.1874947 142.53125,25.7656339 142.53125,23.984375 C142.53125,22.2239495 142.114587,20.8489633 141.28125,19.859375 C140.447913,18.8802034 139.296882,18.390625 137.828125,18.390625 L137.828125,18.390625 Z M159.1875,22.484375 C159.104166,21.2447855 158.677087,20.2656286 157.90625,19.546875 C157.156246,18.8385381 156.14584,18.484375 154.875,18.484375 C153.718744,18.484375 152.7474,18.8463505 151.960938,19.5703125 C151.174475,20.2942745 150.713542,21.2656189 150.578125,22.484375 L159.1875,22.484375 Z M161.46875,24.125 L150.453125,24.125 C150.515625,25.9166756 150.963538,27.3229116 151.796875,28.34375 C152.630212,29.3645884 153.76041,29.875 155.1875,29.875 C156.187505,29.875 157.083329,29.5989611 157.875,29.046875 C158.645837,28.5052056 159.286456,27.6718806 159.796875,26.546875 L161.5625,27.515625 C160.854163,28.9010486 159.989588,29.9322883 158.96875,30.609375 C157.968745,31.2656283 156.708341,31.5989583 155.1875,31.609375 C153.15624,31.609375 151.513027,30.9270902 150.257812,29.5625 C149.002598,28.1979098 148.375,26.4166777 148.375,24.21875 C148.375,21.9374886 148.994785,20.1015695 150.234375,18.7109375 C151.473965,17.3203055 153.104157,16.625 155.125,16.625 C157.041676,16.625 158.578119,17.2656186 159.734375,18.546875 C160.890631,19.8281314 161.46875,21.5468642 161.46875,23.703125 L161.46875,24.125 Z" id="College" fill="#292242"></path>
                    <g id="mortarboard-1" fill="#352D52">
                        <path d="M46.1642693,8.95852369 L26.6900349,0.612149626 C24.9777157,-0.121496259 23.0129476,-0.121017456 21.2988329,0.613586035 L1.82866833,8.95804489 C0.70084788,9.44151621 0,10.5038603 0,11.730793 C0,12.9572469 0.700488778,14.0191122 1.82783042,14.5025835 L4.12919701,15.488798 C4.12692269,15.5126185 4.12548628,15.5369177 4.12548628,15.561217 L4.12548628,26.4520698 C3.23563092,26.7527581 2.59319701,27.5948529 2.59319701,28.5847781 C2.59319701,29.1585037 2.80973566,29.6826733 3.16416958,30.0805586 C2.77179052,30.4649177 2.5113217,30.9866933 2.45757606,31.5777756 L1.90635411,37.6432519 C1.86840898,38.0574165 2.00774065,38.4713416 2.2883192,38.7784938 C2.56889776,39.0856459 2.96821945,39.2619651 3.38429925,39.2619651 L6.30296259,39.2619651 C6.71916209,39.2619651 7.11848379,39.0856459 7.39894264,38.7784938 C7.6795212,38.4713416 7.81885287,38.0574165 7.78102743,37.6432519 L7.22968579,31.5777756 C7.17594015,30.9866933 6.91547132,30.4653965 6.52273317,30.0805586 C6.87764589,29.6826733 7.09418454,29.1585037 7.09418454,28.5847781 C7.09418454,27.5948529 6.45127182,26.7527581 5.56189526,26.4520698 L5.56189526,16.1031022 L9.49143142,17.7874115 C9.48903741,17.8107531 9.4881995,17.8350524 9.4881995,17.8593516 L9.4881995,23.3427232 C9.4881995,25.6315212 11.0549626,27.7486683 13.9007282,29.3042993 C16.6089576,30.7852369 20.1938753,31.6011172 23.9958105,31.6011172 C27.7972668,31.6011172 31.3826633,30.7852369 34.0908928,29.3042993 C36.9360599,27.7486683 38.5034214,25.6315212 38.5034214,23.3427232 L38.5034214,17.8593516 C38.5034214,17.8350524 38.501985,17.8107531 38.4997107,17.7874115 L46.1628329,14.5030623 C47.2906534,14.019591 47.9916209,12.9567681 47.9916209,11.7298354 C47.9916209,10.5033815 47.291611,9.44151621 46.1642693,8.95852369 L46.1642693,8.95852369 Z M6.33851372,37.8096359 C6.32402993,37.8255561 6.30858853,37.8255561 6.30296259,37.8255561 L3.38429925,37.8255561 C3.37831421,37.8255561 3.36335162,37.8255561 3.34886783,37.8096359 C3.33474314,37.7941945 3.33617955,37.7787531 3.33665835,37.7731272 L3.8878803,31.7077706 C3.93324688,31.2101746 4.34429925,30.834793 4.84369077,30.834793 C5.34308229,30.834793 5.75401496,31.2101746 5.79938155,31.7077706 L6.35072319,37.7731272 C6.351202,37.7787531 6.3525187,37.7941945 6.33851372,37.8096359 L6.33851372,37.8096359 Z M4.84369077,29.398384 C4.39481297,29.398384 4.02960599,29.0331771 4.02960599,28.5847781 C4.02960599,28.1359002 4.39481297,27.7706933 4.84369077,27.7706933 C5.29256858,27.7706933 5.65777556,28.1359002 5.65777556,28.5847781 C5.65777556,29.0331771 5.29256858,29.398384 4.84369077,29.398384 L4.84369077,29.398384 Z M37.0670125,20.2786234 C37.0670125,22.1359002 35.5385536,23.9491272 32.8732968,25.2532668 C32.5169476,25.4276708 32.3697157,25.8578753 32.5441197,26.2141047 C32.6689676,26.4689476 32.9242893,26.6166584 33.1897855,26.6166584 C33.2959601,26.6166584 33.4035711,26.5933167 33.5049576,26.5432818 C34.9835012,25.8199302 36.1678204,24.9385736 37.0118304,23.9584638 C36.7429825,25.4730374 35.4851671,26.9052569 33.4021347,28.0442095 C30.9014663,29.4114314 27.5606185,30.1647082 23.9958105,30.1647082 C20.4310025,30.1647082 17.0905137,29.4114314 14.5899651,28.0442095 C12.5143541,26.9094464 11.2579751,25.4833317 10.9825436,23.9748628 C11.7081696,24.8118105 12.6878005,25.5772968 13.9007282,26.2403192 C16.6089576,27.7211372 20.1943541,28.5365387 23.9958105,28.5365387 C25.0591122,28.5365387 26.12002,28.47202 27.1487282,28.344419 C27.5424239,28.2953416 27.8215661,27.9367182 27.7729676,27.5435012 C27.7237706,27.1496858 27.3661047,26.8701845 26.9719302,26.918783 C26.0017556,27.0394414 25.0005786,27.1001297 23.9958105,27.1001297 C20.4310025,27.1001297 17.0905137,26.3473317 14.5899651,24.9797506 C12.2263541,23.6873416 10.9246085,22.017995 10.9246085,20.2786234 L10.9246085,18.4013566 L21.3020648,22.8489576 C22.157207,23.2154813 23.0760299,23.3988628 23.9948529,23.3988628 C24.9151122,23.3988628 25.8352519,23.2150025 26.692788,22.8475212 L37.0670125,18.4013566 L37.0670125,20.2786234 Z M45.5971272,13.1826434 L26.1270823,21.5271022 C24.7724289,22.1072918 23.2200299,22.1082494 21.8678903,21.5285387 L6.98753117,15.1511222 L20.6216858,12.7800898 C21.2351521,13.5057157 22.4845885,13.980808 23.9958105,13.980808 C26.1522195,13.980808 27.7784738,13.0133865 27.7784738,11.730793 C27.7784738,10.4477207 26.1522195,9.48029925 23.9958105,9.48029925 C22.0371471,9.48029925 20.5164688,10.2784638 20.2537257,11.3856958 L4.7207581,14.0873416 C4.67491272,14.0953616 4.63134165,14.1074514 4.58980549,14.1233716 L2.39353616,13.1821646 C1.79407481,12.9254065 1.43640898,12.3825636 1.43640898,11.730793 C1.43640898,11.0785436 1.79455362,10.5352219 2.39449377,10.277985 L21.8645387,1.93352618 C22.5425237,1.64325187 23.269586,1.49829426 23.9967681,1.49829426 C24.7228728,1.49829426 25.4486185,1.64277307 26.1242095,1.93220948 L45.5985636,10.2784638 C46.1974264,10.5357007 46.555212,11.0780648 46.555212,11.7298354 C46.555212,12.3825636 46.1970673,12.9254065 45.5971272,13.1826434 L45.5971272,13.1826434 Z M21.6494364,11.730793 C21.6494364,11.5213167 22.4564589,10.9167082 23.9958105,10.9167082 C25.5350424,10.9167082 26.3420648,11.5213167 26.3420648,11.730793 C26.3420648,11.9397905 25.5350424,12.5448778 23.9958105,12.5448778 C22.4564589,12.5448778 21.6494364,11.9397905 21.6494364,11.730793 L21.6494364,11.730793 Z" id="Fill-1"></path>
                        <path d="M29.3575661,27.9455761 C29.4113117,27.9455761 29.4655362,27.9394713 29.5197606,27.9269027 C30.0622444,27.8015761 30.5961097,27.6561397 31.1072319,27.4943042 C31.4850075,27.3750823 31.6949626,26.9710923 31.5752618,26.5933167 C31.4555611,26.2150623 31.0520499,26.0051072 30.6737955,26.124808 C30.1987032,26.2753915 29.7017057,26.4105337 29.1966883,26.5273616 C28.8105337,26.6166584 28.569217,27.0019751 28.6585137,27.3887282 C28.7352419,27.7206584 29.0306633,27.9455761 29.3575661,27.9455761 L29.3575661,27.9455761 Z" id="Fill-3"></path>
                    </g>
                </g>
            </g>
        </g>
    </g>
</svg>