<?xml version="1.0" encoding="UTF-8" standalone="no"?>
<svg width="160px" height="118px" viewBox="0 0 160 118" version="1.1" xmlns="http://www.w3.org/2000/svg" xmlns:xlink="http://www.w3.org/1999/xlink">
    <!-- Generator: Sketch 39.1 (31720) - http://www.bohemiancoding.com/sketch -->
    <title>security</title>
    <desc>Created with Sketch.</desc>
    <defs></defs>
    <g id="Marketing" stroke="none" stroke-width="1" fill="none" fill-rule="evenodd">
        <g id="security" transform="translate(-980.000000, -1611.000000)" fill="#FFFFFF">
            <g transform="translate(980.000000, 1611.000000)" id="Layer_1">
                <g>
                    <g id="Group">
                        <g id="Shape">
                            <path d="M104.293878,35.2 L103.412245,35.2 L103.412245,23.5102041 C103.412245,10.5469388 92.8653061,0 79.9020408,0 C66.9387755,0 56.3918367,10.5469388 56.3918367,23.5102041 C56.3918367,25.1428571 57.7306122,26.4816327 59.3632653,26.4816327 C60.9959184,26.4816327 62.3346939,25.1428571 62.3346939,23.5102041 C62.3346939,13.8122449 70.2367347,5.91020408 79.9346939,5.91020408 C89.6326531,5.91020408 97.5346939,13.8122449 97.5346939,23.5102041 L97.5346939,35.2 L55.5102041,35.2 C51.2653061,35.2 47.8040816,38.6612245 47.8040816,42.9061224 L47.8040816,75.0040816 C47.8040816,79.2489796 51.2653061,82.7102041 55.5102041,82.7102041 L104.261224,82.7102041 C108.506122,82.7102041 111.967347,79.2489796 111.967347,75.0040816 L111.967347,42.9061224 C111.967347,38.6612245 108.538776,35.2 104.293878,35.2 L104.293878,35.2 Z M106.057143,74.9714286 C106.057143,75.9510204 105.273469,76.7346939 104.293878,76.7346939 L55.5102041,76.7346939 C54.5306122,76.7346939 53.7469388,75.9510204 53.7469388,74.9714286 L53.7469388,42.8734694 C53.7469388,41.8938776 54.5306122,41.1102041 55.5102041,41.1102041 L104.261224,41.1102041 C105.240816,41.1102041 106.02449,41.8938776 106.02449,42.8734694 L106.02449,74.9714286 L106.057143,74.9714286 L106.057143,74.9714286 Z"></path>
                            <path d="M80.7510204,50.5795918 C78.5959184,50.155102 76.3428571,51.3632653 75.4285714,53.4204082 C74.4816327,55.5428571 75.1020408,57.9265306 77.0285714,59.3306122 C77.4204082,59.6244898 77.4857143,59.8857143 77.4857143,60.3102041 L77.4857143,66.644898 L77.4857143,66.644898 C77.4857143,68.3755102 79.3142857,69.7142857 81.1755102,68.7673469 C81.9591837,68.3755102 82.4163265,67.5265306 82.3510204,66.644898 L82.3510204,66.644898 L82.3510204,60.3102041 C82.3510204,59.8530612 82.4489796,59.5591837 82.8734694,59.2653061 C84.2122449,58.2857143 84.8653061,56.9469388 84.8653061,55.3142857 C84.8,52.9632653 83.1346939,51.0367347 80.7510204,50.5795918 L80.7510204,50.5795918 Z"></path>
                            <path d="M37.6816327,57.2408163 L21.2571429,57.2408163 C19.9510204,52.7020408 15.8040816,49.3714286 10.8408163,49.3714286 C4.86530612,49.3714286 0,54.2367347 0,60.2122449 C0,66.1877551 4.86530612,71.0530612 10.8408163,71.0530612 C15.7714286,71.0530612 19.9510204,67.722449 21.2571429,63.1836735 L37.7142857,63.1836735 C39.3469388,63.1836735 40.6857143,61.844898 40.6857143,60.2122449 C40.6530612,58.5795918 39.3142857,57.2408163 37.6816327,57.2408163 L37.6816327,57.2408163 Z M10.8408163,65.1102041 C8.13061224,65.1102041 5.94285714,62.922449 5.94285714,60.2122449 C5.94285714,57.5020408 8.13061224,55.3142857 10.8408163,55.3142857 C13.5510204,55.3142857 15.7387755,57.5020408 15.7387755,60.2122449 C15.7387755,62.922449 13.5510204,65.1102041 10.8408163,65.1102041 L10.8408163,65.1102041 Z"></path>
                            <path d="M37.6816327,39.8367347 L19.6897959,39.8367347 C16.4571429,39.8367347 13.8122449,37.1918367 13.8122449,33.9591837 L13.8122449,24.2938776 C18.3510204,22.9877551 21.6816327,18.8408163 21.6816327,13.877551 C21.6816327,7.90204082 16.8163265,3.03673469 10.8408163,3.03673469 C4.86530612,3.03673469 0,7.90204082 0,13.877551 C0,18.8081633 3.33061224,22.9877551 7.86938776,24.2938776 L7.86938776,33.9591837 C7.86938776,40.4571429 13.1591837,45.7469388 19.6571429,45.7469388 L37.6816327,45.7469388 C39.3142857,45.7469388 40.6530612,44.4081633 40.6530612,42.7755102 C40.6530612,41.1428571 39.3142857,39.8367347 37.6816327,39.8367347 L37.6816327,39.8367347 Z M5.91020408,13.877551 C5.91020408,11.1673469 8.09795918,8.97959184 10.8081633,8.97959184 C13.5183673,8.97959184 15.7061224,11.1673469 15.7061224,13.877551 C15.7061224,16.5877551 13.5183673,18.7755102 10.8081633,18.7755102 C8.09795918,18.7755102 5.91020408,16.5877551 5.91020408,13.877551 L5.91020408,13.877551 Z"></path>
                            <path d="M37.6816327,74.644898 L19.6897959,74.644898 C13.1918367,74.644898 7.90204082,79.9346939 7.90204082,86.4326531 L7.90204082,96.0979592 C3.36326531,97.4040816 0.0326530612,101.55102 0.0326530612,106.514286 C0.0326530612,112.489796 4.89795918,117.355102 10.8734694,117.355102 C16.8489796,117.355102 21.7142857,112.489796 21.7142857,106.514286 C21.7142857,101.583673 18.3836735,97.4040816 13.844898,96.0979592 L13.844898,86.4326531 C13.844898,83.2 16.4897959,80.555102 19.722449,80.555102 L37.7469388,80.555102 C39.3795918,80.555102 40.7183673,79.2163265 40.7183673,77.5836735 C40.6530612,75.9836735 39.3142857,74.644898 37.6816327,74.644898 L37.6816327,74.644898 Z M15.7387755,106.514286 C15.7387755,109.22449 13.5510204,111.412245 10.8408163,111.412245 C8.13061224,111.412245 5.94285714,109.22449 5.94285714,106.514286 C5.94285714,103.804082 8.13061224,101.616327 10.8408163,101.616327 C13.5510204,101.616327 15.7387755,103.804082 15.7387755,106.514286 L15.7387755,106.514286 Z"></path>
                            <path d="M148.963265,49.3714286 C144.032653,49.3714286 139.853061,52.7020408 138.546939,57.2408163 L122.089796,57.2408163 C120.457143,57.2408163 119.118367,58.5795918 119.118367,60.2122449 C119.118367,61.844898 120.457143,63.1836735 122.089796,63.1836735 L138.546939,63.1836735 C139.853061,67.722449 144,71.0530612 148.963265,71.0530612 C154.938776,71.0530612 159.804082,66.1877551 159.804082,60.2122449 C159.804082,54.2367347 154.938776,49.3714286 148.963265,49.3714286 L148.963265,49.3714286 Z M148.963265,65.1102041 C146.253061,65.1102041 144.065306,62.922449 144.065306,60.2122449 C144.065306,57.5020408 146.253061,55.3142857 148.963265,55.3142857 C151.673469,55.3142857 153.861224,57.5020408 153.861224,60.2122449 C153.893878,62.922449 151.673469,65.1102041 148.963265,65.1102041 L148.963265,65.1102041 Z"></path>
                            <path d="M151.934694,96.0979592 L151.934694,86.4326531 C151.934694,79.9346939 146.644898,74.644898 140.146939,74.644898 L122.122449,74.644898 C120.489796,74.644898 119.15102,75.9836735 119.15102,77.6163265 C119.15102,79.2489796 120.489796,80.5877551 122.122449,80.5877551 L140.146939,80.5877551 C143.379592,80.5877551 146.02449,83.2326531 146.02449,86.4653061 L146.02449,96.1306122 C141.485714,97.4367347 138.155102,101.583673 138.155102,106.546939 C138.155102,112.522449 143.020408,117.387755 148.995918,117.387755 C154.971429,117.387755 159.836735,112.522449 159.836735,106.546939 C159.804082,101.583673 156.473469,97.4040816 151.934694,96.0979592 L151.934694,96.0979592 Z M148.963265,111.444898 C146.253061,111.444898 144.065306,109.257143 144.065306,106.546939 C144.065306,103.836735 146.253061,101.64898 148.963265,101.64898 C151.673469,101.64898 153.861224,103.836735 153.861224,106.546939 C153.893878,109.22449 151.673469,111.444898 148.963265,111.444898 L148.963265,111.444898 Z"></path>
                            <path d="M122.122449,45.7469388 L140.146939,45.7469388 C146.644898,45.7469388 151.934694,40.4571429 151.934694,33.9591837 L151.934694,24.2938776 C156.473469,22.9877551 159.804082,18.8408163 159.804082,13.877551 C159.804082,7.90204082 154.938776,3.03673469 148.963265,3.03673469 C142.987755,3.03673469 138.122449,7.90204082 138.122449,13.877551 C138.122449,18.8081633 141.453061,22.9877551 145.991837,24.2938776 L145.991837,33.9591837 C145.991837,37.1918367 143.346939,39.8367347 140.114286,39.8367347 L122.089796,39.8367347 C120.457143,39.8367347 119.118367,41.1755102 119.118367,42.8081633 C119.15102,44.4081633 120.489796,45.7469388 122.122449,45.7469388 L122.122449,45.7469388 Z M144.065306,13.877551 C144.065306,11.1673469 146.253061,8.97959184 148.963265,8.97959184 C151.673469,8.97959184 153.861224,11.1673469 153.861224,13.877551 C153.861224,16.5877551 151.673469,18.7755102 148.963265,18.7755102 C146.253061,18.7755102 144.065306,16.5877551 144.065306,13.877551 L144.065306,13.877551 Z"></path>
                        </g>
                    </g>
                </g>
            </g>
        </g>
    </g>
</svg>