<?xml version="1.0" encoding="UTF-8" standalone="no"?>
<svg width="80px" height="80px" viewBox="0 0 80 80" version="1.1" xmlns="http://www.w3.org/2000/svg" xmlns:xlink="http://www.w3.org/1999/xlink">
    <!-- Generator: Sketch 39.1 (31720) - http://www.bohemiancoding.com/sketch -->
    <title>icon-goal-vacation</title>
    <desc>Created with Sketch.</desc>
    <defs>
        <polygon id="path-1" points="0.012244898 0.0355770731 0.012244898 58.3673469 79.997551 58.3673469 79.997551 0.0355770731 0.012244898 0.0355770731"></polygon>
    </defs>
    <g id="Page-1" stroke="none" stroke-width="1" fill="none" fill-rule="evenodd" opacity="0.4">
        <g id="icon-goal-vacation">
            <g id="sun-umbrella" transform="translate(0.000000, 9.000000)">
                <polygon id="Fill-1" fill="#FFFFFF" points="17.5438776 54.8812245 50.0726531 54.8812245 50.0726531 52.4418367 17.5438776 52.4418367"></polygon>
                <polygon id="Fill-2" fill="#FFFFFF" points="53.8130612 54.8812245 58.8544898 54.8812245 58.8544898 52.4418367 53.8130612 52.4418367"></polygon>
                <g id="Group-6" transform="translate(0.000000, 2.857143)">
                    <mask id="mask-2" fill="white">
                        <use xlink:href="#path-1"></use>
                    </mask>
                    <g id="Clip-4"></g>
                    <polygon id="Fill-3" fill="#FFFFFF" mask="url(#mask-2)" points="35.1091837 58.3673469 45.0302041 58.3673469 45.0302041 55.6026531 35.1091837 55.6026531"></polygon>
                    <path d="M64.6938776,43.4079592 C63.9436735,33.8344898 55.884898,26.2038776 46.0865306,26.2038776 C41.4014286,26.2038776 37.114898,27.9481633 33.8344898,30.8155102 L34.782449,33.3730612 C37.6993878,30.4997959 41.69,28.7038776 46.0865306,28.7038776 C54.5010204,28.7038776 61.4332653,35.2830612 62.1826531,43.4079592 L38.5036735,43.4079592 L30.1146939,20.7836735 L47.6944898,14.265102 L47.26,13.0930612 C45.4034694,8.08367347 41.7059184,4.09836735 36.8518367,1.86938776 C31.9953061,-0.359591837 26.5632653,-0.562857143 21.5553061,1.29387755 C16.5465306,3.15061224 12.5614286,6.84714286 10.332449,11.7028571 C8.10428571,16.5577551 7.89938776,21.9897959 9.75693878,26.9985714 L10.1914286,28.1704082 L27.7710204,21.6526531 L31.8957143,32.7767347 C29.4061224,35.6944898 27.794898,39.3781633 27.4791837,43.4079592 L0,43.4079592 L0,45.9079592 L79.997551,45.9079592 L79.997551,43.4079592 L64.6938776,43.4079592 Z M28.5179592,2.53755102 C31.0036735,2.53755102 33.4820408,3.07408163 35.8091837,4.1422449 C39.6755102,5.91673469 42.7032653,8.96693878 44.4412245,12.8053061 L38.4981633,15.0087755 C35.5381633,7.66510204 31.6159184,4.18122449 28.3355102,2.5455102 C28.3961224,2.54469388 28.4567347,2.53755102 28.5179592,2.53755102 L28.5179592,2.53755102 Z M11.7067347,24.9426531 C10.5214286,20.8985714 10.8289796,16.6128571 12.6044898,12.7455102 C13.714898,10.3277551 15.3363265,8.25346939 17.3238776,6.60163265 C15.8714286,9.98326531 15.1308163,15.1985714 17.6179592,22.7504082 L11.7067347,24.9426531 Z M19.9616327,21.8814286 C15.8928571,9.43081633 21.4365306,4.45387755 22.5095918,3.63204082 C23.8520408,3.57387755 31.2667347,3.81306122 36.1559184,15.8769388 L19.9616327,21.8814286 Z M29.9904082,43.4079592 C30.2567347,40.5181633 31.3042857,37.8236735 32.9240816,35.5508163 L35.8377551,43.4079592 L29.9904082,43.4079592 Z" id="Fill-5" fill="#FFFFFF" mask="url(#mask-2)"></path>
                </g>
                <polygon id="Fill-7" fill="#FFFFFF" points="21.5816327 0.15 22.4363265 2.49836735 20.0877551 3.35306122 19.2330612 1.0044898"></polygon>
            </g>
        </g>
    </g>
</svg>