<?xml version="1.0" encoding="UTF-8" standalone="no"?>
<svg width="64px" height="64px" viewBox="0 0 64 64" version="1.1" xmlns="http://www.w3.org/2000/svg" xmlns:xlink="http://www.w3.org/1999/xlink">
    <!-- Generator: Sketch 42 (36781) - http://www.bohemiancoding.com/sketch -->
    <title>icon-goal-college</title>
    <desc>Created with Sketch.</desc>
    <defs></defs>
    <g id="Dashboard-v2" stroke="none" stroke-width="1" fill="none" fill-rule="evenodd">
        <g id="icon-goal-college" fill="#FFFFFF">
            <g id="mortarboard-1" transform="translate(0.000000, 6.000000)">
                <path d="M61.1797899,11.8723984 L35.371311,0.811259141 C33.102038,-0.161014476 30.4982039,-0.160379936 28.2265514,0.813162761 L2.42346615,11.8717639 C0.92880764,12.5124904 0,13.9203756 0,15.5463839 C0,17.1717576 0.928331735,18.5790082 2.42235571,19.2197348 L5.47227128,20.5267282 C5.46925722,20.5582965 5.4673536,20.5904994 5.4673536,20.6227023 L5.4673536,35.0559447 C4.28806137,35.4544357 3.43666759,36.5704326 3.43666759,37.8823436 C3.43666759,38.642681 3.72363821,39.3373434 4.1933563,39.864646 C3.67335093,40.3740228 3.32816128,41.0655126 3.25693419,41.848852 L2.52642023,49.8872022 C2.47613296,50.4360792 2.66078404,50.9846388 3.03262436,51.3916961 C3.40446469,51.7987534 3.93367089,52.0324227 4.48508598,52.0324227 L8.353082,52.0324227 C8.90465572,52.0324227 9.43386192,51.7987534 9.80554361,51.3916961 C10.1773839,50.9846388 10.362035,50.4360792 10.3119064,49.8872022 L9.58123379,41.848852 C9.5100067,41.0655126 9.16481704,40.3746574 8.64433577,39.864646 C9.1146884,39.3373434 9.40165903,38.642681 9.40165903,37.8823436 C9.40165903,36.5704326 8.5496307,35.4544357 7.37097301,35.0559447 L7.37097301,21.3408427 L12.5786412,23.5729951 C12.5754685,23.6039289 12.5743581,23.6361318 12.5743581,23.6683347 L12.5743581,30.9352432 C12.5743581,33.9685021 14.6507309,36.7742785 18.4221183,38.8358983 C22.011234,40.79853 26.7621922,41.8797858 31.8007555,41.8797858 C36.8386843,41.8797858 41.590277,40.79853 45.1793928,38.8358983 C48.9499869,36.7742785 51.027153,33.9685021 51.027153,30.9352432 L51.027153,23.6683347 C51.027153,23.6361318 51.0252494,23.6039289 51.0222353,23.5729951 L61.1778862,19.2203693 C62.6725448,18.5796428 63.601511,17.171123 63.601511,15.5451148 C63.601511,13.9197411 62.6738138,12.5124904 61.1797899,11.8723984 L61.1797899,11.8723984 Z M8.40019658,50.1077048 C8.38100175,50.1288033 8.36053784,50.1288033 8.353082,50.1288033 L4.48508598,50.1288033 C4.47715423,50.1288033 4.45732486,50.1288033 4.43813003,50.1077048 C4.41941111,50.0872409 4.42131473,50.066777 4.42194927,50.0593211 L5.15246322,42.0211295 C5.21258587,41.361684 5.75733829,40.8642048 6.41916331,40.8642048 C7.08098832,40.8642048 7.62558211,41.361684 7.68570476,42.0211295 L8.41637734,50.0593211 C8.41701188,50.066777 8.41875687,50.0872409 8.40019658,50.1077048 L8.40019658,50.1077048 Z M6.41916331,38.9605854 C5.82428224,38.9605854 5.340287,38.4765902 5.340287,37.8823436 C5.340287,37.2874626 5.82428224,36.8034673 6.41916331,36.8034673 C7.01404437,36.8034673 7.49803961,37.2874626 7.49803961,37.8823436 C7.49803961,38.4765902 7.01404437,38.9605854 6.41916331,38.9605854 L6.41916331,38.9605854 Z M49.1235336,26.8745057 C49.1235336,29.3358856 47.0979239,31.7388879 43.565758,33.4672157 C43.0935018,33.6983468 42.8983808,34.2684808 43.1295119,34.7405784 C43.2949682,35.0783122 43.6333365,35.2740678 43.9851889,35.2740678 C44.1258981,35.2740678 44.2685109,35.243134 44.4028747,35.1768246 C46.3623336,34.2181935 47.9318678,33.0501644 49.0504029,31.7512614 C48.6941088,33.7584695 47.0271727,35.6565366 44.2666073,37.1659482 C40.9525645,38.9778766 36.525063,39.9761664 31.8007555,39.9761664 C27.076448,39.9761664 22.6494224,38.9778766 19.3355383,37.1659482 C16.5848083,35.6620889 14.9197758,33.7721121 14.5547568,31.7729944 C15.5164019,32.88217 16.8146703,33.8966405 18.4221183,34.7753195 C22.011234,36.7377925 26.7628267,37.8184138 31.8007555,37.8184138 C33.2099098,37.8184138 34.6158914,37.7329095 35.9792001,37.5638047 C36.5009505,37.4987643 36.8708872,37.023494 36.8064814,36.5023782 C36.7412824,35.9804692 36.2672812,35.6100566 35.7448963,35.6744624 C34.45916,35.8343664 33.1323373,35.9147943 31.8007555,35.9147943 C27.076448,35.9147943 22.6494224,34.9171391 19.3355383,33.1047348 C16.2031326,31.3919532 14.4779775,29.1796302 14.4779775,26.8745057 L14.4779775,24.3866338 L28.2308346,30.280874 C29.3641227,30.7666143 30.5818046,31.009643 31.7994864,31.009643 C33.0190719,31.009643 34.2384988,30.7659797 35.3749596,30.2789704 L49.1235336,24.3866338 L49.1235336,26.8745057 Z M60.4281775,17.4704672 L34.6252508,28.5290683 C32.8299791,29.2979719 30.7726424,29.299241 28.980702,28.5309719 L9.26031528,20.079219 L27.3291535,16.9369778 C28.1421576,17.8986229 29.7979893,18.528245 31.8007555,18.528245 C34.6585642,18.528245 36.8137786,17.2461574 36.8137786,15.5463839 C36.8137786,13.8459758 34.6585642,12.5638881 31.8007555,12.5638881 C29.2050118,12.5638881 27.1897134,13.621666 26.8415097,15.0890393 L6.25624521,18.6694302 C6.19548802,18.6800587 6.1377449,18.6960808 6.08269857,18.7171793 L3.17206449,17.4698326 C2.37762065,17.1295607 1.90361942,16.4101512 1.90361942,15.5463839 C1.90361942,14.681982 2.37825519,13.961938 3.17333357,13.6210315 L28.9762602,2.56243037 C29.8747686,2.17774061 30.8383173,1.98563369 31.8020246,1.98563369 C32.7643042,1.98563369 33.7261079,2.17710607 34.6214436,2.56068538 L60.4300811,13.621666 C61.2237318,13.9625725 61.6978916,14.6813475 61.6978916,15.5451148 C61.6978916,16.4101512 61.2232558,17.1295607 60.4281775,17.4704672 L60.4281775,17.4704672 Z M28.6911932,15.5463839 C28.6911932,15.2687727 29.76071,14.4675076 31.8007555,14.4675076 C33.8406424,14.4675076 34.9101592,15.2687727 34.9101592,15.5463839 C34.9101592,15.8233605 33.8406424,16.6252602 31.8007555,16.6252602 C29.76071,16.6252602 28.6911932,15.8233605 28.6911932,15.5463839 L28.6911932,15.5463839 Z" id="Fill-1"></path>
                <path d="M38.9064909,37.035233 C38.977718,37.035233 39.0495796,37.0271426 39.1214413,37.010486 C39.8403749,36.8443952 40.5478867,36.6516537 41.225258,36.4371792 C41.7259099,36.2791788 42.0041556,35.7437859 41.8455206,35.243134 C41.6868857,34.7418475 41.1521273,34.4636018 40.6508408,34.6222368 C40.0212187,34.8217995 39.3625664,35.0008984 38.6932855,35.1557261 C38.1815292,35.2740678 37.8617211,35.7847137 37.9800628,36.2972632 C38.0817478,36.7371579 38.4732588,37.035233 38.9064909,37.035233 L38.9064909,37.035233 Z" id="Fill-3"></path>
            </g>
        </g>
    </g>
</svg>