<?xml version="1.0" encoding="UTF-8" standalone="no"?>
<svg width="64px" height="64px" viewBox="0 0 64 64" version="1.1" xmlns="http://www.w3.org/2000/svg" xmlns:xlink="http://www.w3.org/1999/xlink">
    <!-- Generator: Sketch 42 (36781) - http://www.bohemiancoding.com/sketch -->
    <title>icon-goal-vacation</title>
    <desc>Created with Sketch.</desc>
    <defs>
        <polygon id="path-1" points="0.00976337379 0.0283671015 0.00976337379 46.5387484 63.7854227 46.5387484 63.7854227 0.0283671015 0.00976337379 0.0283671015"></polygon>
    </defs>
    <g id="Dashboard-v2" stroke="none" stroke-width="1" fill="none" fill-rule="evenodd">
        <g id="icon-goal-vacation">
            <g id="sun-umbrella" transform="translate(0.000000, 7.000000)">
                <polygon id="Fill-1" fill="#FFFFFF" points="13.9884738 43.7591159 39.925039 43.7591159 39.925039 41.8140891 13.9884738 41.8140891"></polygon>
                <polygon id="Fill-2" fill="#FFFFFF" points="42.9074242 43.7591159 46.9271679 43.7591159 46.9271679 41.8140891 42.9074242 41.8140891"></polygon>
                <g id="Group-6" transform="translate(0.000000, 2.278121)">
                    <mask id="mask-2" fill="white">
                        <use xlink:href="#path-1"></use>
                    </mask>
                    <g id="Clip-4"></g>
                    <polygon id="Fill-3" fill="#FFFFFF" mask="url(#mask-2)" points="27.9940335 46.5387484 35.9044817 46.5387484 35.9044817 44.3343413 27.9940335 44.3343413"></polygon>
                    <path d="M51.5831582,34.6109974 C50.9849888,26.9776663 44.5593871,20.8934572 36.7467354,20.8934572 C33.0111058,20.8934572 29.5932741,22.2842498 26.9776663,24.5705065 L27.7335141,26.6097498 C30.0593125,24.3187742 33.241196,22.8868127 36.7467354,22.8868127 C43.4559631,22.8868127 48.9833345,28.1326734 49.5808529,34.6109974 L30.7006034,34.6109974 L24.011716,16.5716998 L38.0288291,11.3741677 L37.682392,10.4396501 C36.2021018,6.44545393 33.2538884,3.26780121 29.3835243,1.49054173 C25.5112075,-0.286717744 21.1800122,-0.448789748 17.186955,1.03166316 C13.193247,2.51211608 10.015757,5.4595159 8.23849753,9.33118178 C6.46188894,13.2021968 6.29851515,17.5333921 7.77961896,21.5271001 L8.126056,22.461455 L22.1430063,17.2645739 L25.4317988,26.1342735 C23.4467422,28.4607228 22.1620449,31.397871 21.9103126,34.6109974 L0,34.6109974 L0,36.6043528 L63.7854227,36.6043528 L63.7854227,34.6109974 L51.5831582,34.6109974 Z M22.7385721,2.02329649 C24.720537,2.02329649 26.6966438,2.45109499 28.552173,3.30278663 C31.6349583,4.71766221 34.0491152,7.14971862 35.4348634,10.2102109 L30.6962099,11.96713 C28.336077,6.11170927 25.2087057,3.3338667 22.5930978,2.02964269 C22.6414265,2.0289918 22.6897552,2.02329649 22.7385721,2.02329649 L22.7385721,2.02329649 Z M9.33427351,19.8878297 C8.38917893,16.6633128 8.63440233,13.2461319 10.0500915,10.1625331 C10.9354668,8.2347549 12.2283002,6.58083938 13.8130585,5.26376025 C12.6549597,7.96007865 12.0644383,12.1184623 14.0475422,18.1398603 L9.33427351,19.8878297 Z M15.9162519,17.4469862 C12.6720456,7.51958777 17.0922503,3.55126449 17.9478473,2.89597939 C19.0182385,2.84960336 24.9302868,3.0403146 28.8286392,12.6593532 L15.9162519,17.4469862 Z M23.9126178,34.6109974 C24.1249712,32.3068411 24.9602278,30.1584107 26.2517594,28.3461658 L28.5749542,34.6109974 L23.9126178,34.6109974 Z" id="Fill-5" fill="#FFFFFF" mask="url(#mask-2)"></path>
                </g>
                <polygon id="Fill-7" fill="#FFFFFF" points="17.2079463 0.119601329 17.8894298 1.9920537 16.0168147 2.67353719 15.3353312 0.800922096"></polygon>
            </g>
        </g>
    </g>
</svg>