<?xml version="1.0" encoding="UTF-8" standalone="no"?>
<svg width="64px" height="64px" viewBox="0 0 64 64" version="1.1" xmlns="http://www.w3.org/2000/svg" xmlns:xlink="http://www.w3.org/1999/xlink">
    <!-- Generator: Sketch 42 (36781) - http://www.bohemiancoding.com/sketch -->
    <title>icon-goal-car</title>
    <desc>Created with Sketch.</desc>
    <defs>
        <polygon id="path-1" points="0.0100716909 0.0735233432 0.0100716909 39.9512083 63.65082 39.9512083 63.65082 0.0735233432 0.0100716909 0.0735233432"></polygon>
    </defs>
    <g id="Dashboard-v2" stroke="none" stroke-width="1" fill="none" fill-rule="evenodd">
        <g id="icon-goal-car">
            <g id="sport-car" transform="translate(0.000000, 12.000000)">
                <path d="M44.3908096,13.3765483 L19.259423,13.3765483 C18.7034656,13.3765483 18.2522539,13.8277601 18.2522539,14.3837174 C18.2522539,14.9398426 18.7034656,15.3908865 19.259423,15.3908865 L44.391481,15.3908865 C44.9476062,15.3908865 45.3986501,14.9398426 45.3986501,14.3837174 C45.3986501,13.8277601 44.9476062,13.3765483 44.3908096,13.3765483 L44.3908096,13.3765483 Z" id="Fill-1" fill="#FFFFFF"></path>
                <path d="M8.76035671,17.9423815 L5.03785977,17.9423815 C4.48173457,17.9423815 4.03069068,18.3934254 4.03069068,18.9495506 C4.03069068,19.5061794 4.48173457,19.9567197 5.03785977,19.9567197 L8.76035671,19.9567197 C10.5996153,19.9567197 12.1509914,21.2156811 12.5975031,22.9164539 L5.29619864,22.9164539 C4.73940199,22.9164539 4.28902955,23.3676657 4.28902955,23.923623 C4.28902955,24.4797482 4.73940199,24.9307921 5.29619864,24.9307921 L13.7337576,24.9307921 C14.2905543,24.9307921 14.7409267,24.4797482 14.7409267,23.923623 C14.7415982,20.62548 12.0584997,17.9423815 8.76035671,17.9423815 L8.76035671,17.9423815 Z" id="Fill-2" fill="#FFFFFF"></path>
                <g id="Group-6">
                    <mask id="mask-2" fill="white">
                        <use xlink:href="#path-1"></use>
                    </mask>
                    <g id="Clip-4"></g>
                    <path d="M54.8900437,19.9567197 L58.6125407,19.9567197 C59.168498,19.9567197 59.6197097,19.5061794 59.6197097,18.9495506 C59.6197097,18.3934254 59.168498,17.9423815 58.6125407,17.9423815 L54.8900437,17.9423815 C51.5925721,17.9423815 48.9093058,20.62548 48.9093058,23.923623 C48.9093058,24.4797482 49.3605176,24.9307921 49.9164749,24.9307921 L58.3542018,24.9307921 C58.9108306,24.9307921 59.3613709,24.4797482 59.3613709,23.923623 C59.3613709,23.3676657 58.9108306,22.9164539 58.3542018,22.9164539 L51.0528974,22.9164539 C51.5000804,21.2156811 53.0507851,19.9567197 54.8900437,19.9567197 L54.8900437,19.9567197 Z" id="Fill-3" fill="#FFFFFF" mask="url(#mask-2)"></path>
                    <path d="M61.5952719,13.5157055 C60.1835566,12.0402028 58.2662424,11.227921 56.1968456,11.227921 C56.1063682,11.227921 56.0158909,11.2403427 55.9287708,11.2645148 L52.692065,12.1583773 L47.9237909,2.99800664 C47.0700472,1.35816751 44.9528099,0.0735233432 43.1043189,0.0735233432 L20.5459136,0.0735233432 C18.6975905,0.0735233432 16.5801853,1.35816751 15.7266095,2.99800664 L10.958839,12.1583773 L7.72162966,11.2645148 C7.63434167,11.2403427 7.54453576,11.227921 7.45338696,11.227921 C5.38399021,11.227921 3.46667599,12.0402028 2.05496066,13.5157055 C0.643245323,14.991544 -0.0839307571,16.9424305 0.00788949117,19.0163595 L0.73825494,33.5889211 C0.765280643,34.1252387 1.2077636,34.5462354 1.74492044,34.5462354 L2.08064347,34.5462354 L2.08064347,38.9440392 C2.08064347,39.4999965 2.53101591,39.9512083 3.08781255,39.9512083 L13.6845742,39.9512083 C14.2406994,39.9512083 14.6917433,39.4999965 14.6917433,38.9440392 L14.6917433,37.5677426 C14.6917433,37.010946 14.2406994,36.5605735 13.6845742,36.5605735 C13.1279454,36.5605735 12.6774051,37.010946 12.6774051,37.5677426 L12.6774051,37.9368701 L4.09431019,37.9368701 L4.09431019,34.5462354 L59.5560902,34.5462354 L59.5560902,37.9368701 L50.9734989,37.9368701 L50.9734989,37.5677426 C50.9734989,37.010946 50.522455,36.5605735 49.9663298,36.5605735 C49.4103724,36.5605735 48.9591607,37.010946 48.9591607,37.5677426 L48.9591607,38.9440392 C48.9591607,39.4999965 49.4103724,39.9512083 49.9663298,39.9512083 L60.5632593,39.9512083 C61.1192166,39.9512083 61.5704284,39.4999965 61.5704284,38.9440392 L61.5704284,34.5462354 L61.9061514,34.5462354 C62.442469,34.5462354 62.8851198,34.1252387 62.9119776,33.5889211 L63.6431824,19.0104844 C63.7343312,16.9424305 63.0071551,14.991544 61.5952719,13.5157055 L61.5952719,13.5157055 Z M61.6306907,18.9153069 L60.9481658,32.5312257 L2.70223466,32.5312257 L2.01954188,18.9213499 C1.95340444,17.4079105 2.48250393,15.9831019 3.51065571,14.9082847 C4.50926386,13.8651932 5.85803112,13.2770065 7.32228711,13.2441056 L11.197538,14.3142228 C11.1995524,14.3148942 11.2020703,14.3155657 11.2047561,14.3162371 L14.9626718,15.3549642 C15.4983179,15.503018 16.0537716,15.1882777 16.2019934,14.6519601 C16.3493758,14.116314 16.0353069,13.5615317 15.4989893,13.41331 L12.9443049,12.7071166 L17.5133275,3.92846302 C18.0241301,2.94815177 19.4410491,2.08786151 20.5459136,2.08786151 L43.1043189,2.08786151 C44.2098549,2.08786151 45.6267739,2.94815177 46.1370729,3.92846302 L50.7065991,12.7071166 L48.1519147,13.41331 C47.6155971,13.5615317 47.3008568,14.116314 47.4490785,14.6519601 C47.5973002,15.1882777 48.1519147,15.5023466 48.6884001,15.3549642 L56.3279454,13.2441056 C57.7922014,13.2770065 59.1416401,13.8651932 60.1397447,14.9082847 C61.1678965,15.9831019 61.6976674,17.4079105 61.6306907,18.9153069 L61.6306907,18.9153069 Z" id="Fill-5" fill="#FFFFFF" mask="url(#mask-2)"></path>
                </g>
                <path d="M56.1968456,9.21358279 L59.7056548,9.21358279 C60.2616122,9.21358279 60.7128239,8.76304249 60.7128239,8.20641371 C60.7128239,7.65028851 60.2616122,7.19924462 59.7056548,7.19924462 L56.1968456,7.19924462 C55.6408883,7.19924462 55.1896765,7.65028851 55.1896765,8.20641371 C55.1896765,8.76304249 55.6408883,9.21358279 56.1968456,9.21358279 L56.1968456,9.21358279 Z" id="Fill-7" fill="#FFFFFF"></path>
                <path d="M3.94474558,9.21358279 L7.45338696,9.21358279 C8.0101836,9.21358279 8.46055604,8.76304249 8.46055604,8.20641371 C8.46055604,7.65028851 8.0101836,7.19924462 7.45338696,7.19924462 L3.94474558,7.19924462 C3.38878825,7.19924462 2.9375765,7.65028851 2.9375765,8.20641371 C2.9375765,8.76304249 3.38878825,9.21358279 3.94474558,9.21358279 L3.94474558,9.21358279 Z" id="Fill-8" fill="#FFFFFF"></path>
                <path d="M42.9962161,25.81089 L20.6541843,25.81089 C20.0980591,25.81089 19.6470152,26.2619339 19.6470152,26.8180591 L19.6470152,29.5097185 C19.6470152,30.0663473 20.0980591,30.5168876 20.6541843,30.5168876 C21.2108131,30.5168876 21.6613534,30.0663473 21.6613534,29.5097185 L21.6613534,27.8252282 L41.989047,27.8252282 L41.989047,29.5097185 C41.989047,30.0663473 42.4400909,30.5168876 42.9962161,30.5168876 C43.5521735,30.5168876 44.0033852,30.0663473 44.0033852,29.5097185 L44.0033852,26.8180591 C44.0033852,26.2619339 43.5521735,25.81089 42.9962161,25.81089 L42.9962161,25.81089 Z" id="Fill-9" fill="#FFFFFF"></path>
                <path d="M37.4107921,20.762455 C37.9669173,20.762455 38.4179612,20.3114111 38.4179612,19.7552859 C38.4179612,19.1993286 37.9669173,18.7481168 37.4107921,18.7481168 L26.2394405,18.7481168 C25.6834831,18.7481168 25.2322714,19.1993286 25.2322714,19.7552859 C25.2322714,20.3114111 25.6834831,20.762455 26.2394405,20.762455 L37.4107921,20.762455 Z" id="Fill-10" fill="#FFFFFF"></path>
            </g>
        </g>
    </g>
</svg>