<?xml version="1.0" encoding="UTF-8" standalone="no"?>
<svg width="64px" height="64px" viewBox="0 0 64 64" version="1.1" xmlns="http://www.w3.org/2000/svg" xmlns:xlink="http://www.w3.org/1999/xlink">
    <!-- Generator: Sketch 42 (36781) - http://www.bohemiancoding.com/sketch -->
    <title>icon-goal-custom</title>
    <desc>Created with Sketch.</desc>
    <defs>
        <polygon id="path-1" points="0.00703125 0.090853204 0.00703125 57.1981599 59.9999655 57.1981599 59.9999655 0.090853204 0.00703125 0.090853204"></polygon>
    </defs>
    <g id="Dashboard-v2" stroke="none" stroke-width="1" fill="none" fill-rule="evenodd">
        <g id="icon-goal-custom">
            <g id="favorites" transform="translate(2.000000, 2.000000)">
                <path d="M30.0004687,40.9704896 C30.6329297,40.9704896 31.2652734,41.1218669 31.8416016,41.4242705 L43.5840234,47.586871 C43.9768359,47.7932308 44.2976953,47.6134264 44.4174609,47.5268582 C44.5371094,47.4400561 44.8073437,47.1911141 44.7323437,46.7541788 L42.4897266,33.7014544 C42.2695312,32.4198946 42.6948047,31.1129493 43.6275,30.2051534 L53.1273047,20.9613112 C53.4452344,20.6518885 53.3732812,20.2918117 53.3275781,20.1514309 C53.2817578,20.0109331 53.128125,19.6774117 52.6887891,19.6137724 L39.5603906,17.7093898 C38.2713281,17.5224494 37.1575781,16.7147918 36.5811328,15.5485782 L30.7100391,3.67282986 L30.7100391,3.67271287 C30.5133984,3.27520122 30.1482422,3.23238507 30.0004687,3.23238507 C29.8524609,3.23238507 29.4873047,3.2753182 29.2907812,3.67271287 L23.4195703,15.5483442 C22.8430078,16.7145578 21.7292578,17.5223324 20.4401953,17.7091558 L7.31203125,19.6135385 C6.87269531,19.6772947 6.71882812,20.0108161 6.67324219,20.151197 C6.62742187,20.2916947 6.55546875,20.6516545 6.87339844,20.9611942 L16.3732031,30.2050364 C17.3060156,31.1127153 17.7314062,32.4197776 17.5112109,33.7012204 L15.2685937,46.7539449 C15.1935937,47.1907631 15.4637109,47.4398221 15.5833594,47.5265072 C15.703125,47.6133094 16.0238672,47.7927628 16.4169141,47.58652 L28.1592187,41.4241535 C28.7355469,41.1218669 29.3680078,40.9704896 30.0004687,40.9704896 Z M43.9560937,50.841834 C43.3271484,50.841951 42.6951562,50.6904567 42.1110937,50.3839586 L30.3687891,44.2213581 C30.1379297,44.1002797 29.8627734,44.1002797 29.6321484,44.2213581 L17.8897266,50.3839586 C16.5469922,51.0886702 14.9499609,50.973558 13.7225391,50.0830757 C12.4951172,49.1929444 11.8921875,47.7126288 12.1485937,46.2199129 L14.3910937,33.1671884 C14.4351562,32.9109935 14.3499609,32.6494172 14.1635156,32.467975 L4.66371094,23.2240158 C3.57726562,22.1668314 3.19359375,20.6152725 3.66246094,19.1748484 C4.13144531,17.7343074 5.35523437,16.7043802 6.85664062,16.486556 L19.9850391,14.5822903 C20.2428516,14.5447385 20.4655078,14.3833005 20.5809375,14.1501514 L26.4521484,2.27440305 C27.1235156,0.916218736 28.483125,0.0725300838 30.0002344,0.0725300838 C31.5174609,0.0725300838 32.8770703,0.916218736 33.5484375,2.27440305 L39.4196484,14.1499174 C39.5348437,14.3831835 39.7577344,14.5447385 40.0154297,14.5820564 L53.1439453,16.486439 C54.6453516,16.7041462 55.8692578,17.7341904 56.3380078,19.1746145 C56.806875,20.6151555 56.4232031,22.1667144 55.3367578,23.2238989 L45.8370703,32.4677411 C45.650625,32.6493002 45.5654297,32.9107595 45.6094922,33.1670714 L47.8519922,46.2196789 C48.1086328,47.7122778 47.5054687,49.1925935 46.2780469,50.0829587 C45.5846484,50.5863409 44.7730078,50.841834 43.9560937,50.841834 L43.9560937,50.841834 Z" id="Fill-1" fill="#FFFFFF"></path>
                <path d="M45.8785547,7.44018279 C45.5559375,7.44018279 45.2305078,7.34203321 44.9494922,7.13836405 C44.2422656,6.62550617 44.0855859,5.63745925 44.5993359,4.93146078 L46.2794531,2.62313237 C46.7932031,1.91736786 47.7828516,1.76072628 48.4901953,2.27358416 C49.1974219,2.78644204 49.3541016,3.77460594 48.8403516,4.48060442 L47.1602344,6.78893283 C46.850625,7.21428667 46.3680469,7.44018279 45.8785547,7.44018279" id="Fill-2" fill="#FFFFFF"></path>
                <g id="Group-8" transform="translate(0.000000, 1.871744)">
                    <mask id="mask-2" fill="white">
                        <use xlink:href="#path-1"></use>
                    </mask>
                    <g id="Clip-4"></g>
                    <path d="M14.1147656,5.55931394 C13.6252734,5.55931394 13.1426953,5.33353481 12.8329688,4.90783001 L11.1528516,2.5995016 C10.6391016,1.89350312 10.7957813,0.905456207 11.5030078,0.392598324 C12.2102344,-0.120142574 13.2001172,0.0363820259 13.71375,0.742029551 L15.39375,3.05047494 C15.9076172,3.75635644 15.7508203,4.74452034 15.0437109,5.25737822 C14.7629297,5.46116436 14.4373828,5.55931394 14.1147656,5.55931394" id="Fill-3" fill="#FFFFFF" mask="url(#mask-2)"></path>
                    <path d="M1.58285156,36.5998501 C0.915703125,36.5998501 0.295195312,36.1754321 0.0779296875,35.5075704 C-0.192304688,34.6778029 0.262617187,33.7863848 1.0940625,33.5166196 L3.81246094,32.6347942 C4.64378906,32.3651461 5.53664062,32.819395 5.806875,33.6491625 C6.07699219,34.4791641 5.62207031,35.3704652 4.79074219,35.6401133 L2.07234375,36.5219388 C1.90980469,36.5746986 1.74492187,36.5998501 1.58285156,36.5998501" id="Fill-5" fill="#FFFFFF" mask="url(#mask-2)"></path>
                    <path d="M30.0005859,57.205179 C29.1264844,57.205179 28.4178516,56.4977767 28.4178516,55.625193 L28.4178516,52.7717191 C28.4178516,51.8990184 29.1264844,51.1917331 30.0005859,51.1917331 C30.8748047,51.1917331 31.5833203,51.8990184 31.5833203,52.7717191 L31.5833203,55.625193 C31.5833203,56.4977767 30.8748047,57.205179 30.0005859,57.205179" id="Fill-6" fill="#FFFFFF" mask="url(#mask-2)"></path>
                    <path d="M58.4170312,36.6020728 C58.2549609,36.6020728 58.0901953,36.5769212 57.9276562,36.5242784 L55.2092578,35.64257 C54.3778125,35.3728049 53.9230078,34.4815037 54.193125,33.6516192 C54.4633594,32.8216177 55.3564453,32.3677197 56.1875391,32.6370169 L58.9059375,33.5188423 C59.7372656,33.7886075 60.1921875,34.6797916 59.9220703,35.5097931 C59.7046875,36.1775379 59.0842969,36.6020728 58.4170312,36.6020728" id="Fill-7" fill="#FFFFFF" mask="url(#mask-2)"></path>
                </g>
            </g>
        </g>
    </g>
</svg>