<?xml version="1.0" encoding="UTF-8" standalone="no"?>
<svg width="64px" height="64px" viewBox="0 0 64 64" version="1.1" xmlns="http://www.w3.org/2000/svg" xmlns:xlink="http://www.w3.org/1999/xlink">
    <!-- Generator: Sketch 43.2 (39069) - http://www.bohemiancoding.com/sketch -->
    <title>icon-goal-complete</title>
    <desc>Created with Sketch.</desc>
    <defs></defs>
    <g id="Dashboard-v2" stroke="none" stroke-width="1" fill="none" fill-rule="evenodd">
        <g id="icon-goal-complete" fill="#292242">
            <g id="trophy" transform="translate(4.000000, 0.000000)">
                <path d="M51.7518118,9.399125 C50.9151702,14.55025 48.1223702,19.212875 44.0659943,22.423 C45.098002,18.637625 45.6426555,14.498625 45.6426555,10.2255 L45.6426555,7.50025 L50.1083641,7.50025 C50.5999628,7.50025 51.0645972,7.715625 51.3835497,8.090875 C51.6978832,8.461125 51.8285851,8.92575 51.7518118,9.399125 Z M27.3663687,37.04725 C23.4219695,37.04725 19.6552099,34.3605 16.7597958,29.481875 C13.7210717,24.36175 12.047414,17.523 12.047414,10.225625 L12.047414,3.139125 C12.047414,3.041625 12.1265592,2.9625 12.2238053,2.9625 L42.507559,2.9625 C42.60493,2.9625 42.6840751,3.04175 42.6840751,3.139125 L42.6840751,10.2255 C42.6840751,17.522875 41.0105423,24.361625 37.971943,29.48175 C35.0767786,34.3605 31.3102687,37.04725 27.3663687,37.04725 Z M31.636087,46.2915 L23.2506964,46.2915 C23.616337,45.8885 23.9506441,45.451625 24.249623,44.984 C25.2354419,43.441625 25.7528814,41.689375 25.7761006,39.89975 C26.3015295,39.9715 26.8318269,40.009875 27.3666184,40.009875 C27.9483477,40.009875 28.5249588,39.965125 29.0958275,39.880375 C29.1295328,42.28525 30.0642944,44.561625 31.636087,46.2915 Z M19.3712111,54.568125 L35.5015908,54.568125 L35.5015908,49.253875 L19.3712111,49.253875 L19.3712111,54.568125 Z M42.6842,59.01175 L42.6842,61.03775 L12.188602,61.03775 L12.188602,59.01175 C12.188602,58.195 12.8522228,57.5305 13.6677673,57.5305 L41.2049098,57.5305 C42.0205792,57.5305 42.6842,58.195 42.6842,59.01175 Z M2.97955255,9.399125 C2.90252959,8.92575 3.03335627,8.461125 3.34768982,8.090875 C3.66664226,7.7155 4.13127669,7.50025 4.62275056,7.50025 L9.08895852,7.50025 L9.08895852,10.2255 C9.08895852,14.49875 9.63361194,18.638 10.6658694,22.423375 C6.60911893,19.213375 3.81619413,14.5505 2.97955255,9.399125 Z M53.6371889,6.171875 C52.7552324,5.133375 51.4690614,4.538 50.1083641,4.538 L45.6426555,4.538 L45.6426555,3.13925 C45.6426555,1.40825 44.2362687,0.000125 42.5076838,0.000125 L12.2239302,0.000125 C10.4952204,0.000125 9.08908335,1.40825 9.08908335,3.139125 L9.08908335,4.53775 L4.62275056,4.53775 C3.26217811,4.53775 1.97600709,5.13325 1.09405055,6.17175 C0.2210821,7.199375 -0.156043267,8.549125 0.0592964413,9.87475 C1.23274181,17.099875 5.77360086,23.482625 12.2181878,26.98375 C12.8070326,28.4015 13.4738991,29.744125 14.2164154,30.99525 C16.5886476,34.992125 19.5374908,37.75425 22.7835653,39.090125 C23.1125045,42.420625 20.8993116,45.57575 17.5662274,46.327625 C17.5591119,46.32925 17.5541185,46.33175 17.5471277,46.333375 C16.8966146,46.489125 16.4123811,47.073625 16.4123811,47.772625 L16.4123811,54.567875 L13.6677673,54.567875 C11.220884,54.567875 9.23002163,56.561375 9.23002163,59.0115 L9.23002163,62.51875 C9.23002163,63.336875 9.89239409,64 10.7093118,64 L44.1634901,64 C44.9804078,64 45.6426555,63.336875 45.6426555,62.51875 L45.6426555,59.0115 C45.6426555,56.561375 43.6519179,54.567875 41.2049098,54.567875 L38.4600463,54.567875 L38.4600463,47.772625 C38.4600463,47.07225 37.97419,46.486875 37.3218043,46.3325 C37.3156874,46.331 37.3098202,46.329 37.3037033,46.3275 C33.9454025,45.570625 31.7280901,42.38375 32.0916085,39.02825 C35.2808832,37.67075 38.1781698,34.933125 40.5153234,30.99525 C41.2579645,29.744 41.9247062,28.401125 42.5136759,26.983375 C48.9578883,23.482 53.4983728,17.099375 54.671943,9.874625 C54.8872827,8.549125 54.5100325,7.1995 53.6371889,6.171875 L53.6371889,6.171875 Z" id="Fill-1"></path>
                <path d="M30.1200955,18.30075 C29.7714324,18.641 29.6122683,19.13125 29.6946591,19.612 L30.0818961,21.873125 L28.0539578,20.8055 C27.8386181,20.692 27.6020565,20.6355 27.3656197,20.6355 C27.1293078,20.6355 26.8927462,20.69225 26.6774065,20.8055 L24.6494682,21.873125 L25.0367052,19.612 C25.119096,19.1315 24.9599319,18.641125 24.6112688,18.30075 L22.9708172,16.699625 L25.2380634,16.369625 C25.719925,16.2995 26.1363733,15.9965 26.3518378,15.559375 L27.3658694,13.502125 L28.3796513,15.559375 C28.5952407,15.9965 29.011689,16.2995 29.4934257,16.369625 L31.760672,16.699625 L30.1200955,18.30075 Z M35.1521787,14.1995 L30.6883426,13.55 L28.6921123,9.49975 C28.4428176,8.994125 27.9287487,8.674125 27.3657446,8.674125 C26.8024908,8.674125 26.288297,8.994125 26.039252,9.49975 L24.0430217,13.55 L19.5791856,14.1995 C19.0219239,14.2805 18.5591619,14.671375 18.3850177,15.207625 C18.2109982,15.743875 18.3561809,16.332375 18.7593967,16.726125 L21.9894923,19.87875 L21.2270025,24.330375 C21.1316288,24.886125 21.3598265,25.447625 21.815348,25.779125 C22.2708695,26.1105 22.8748194,26.154125 23.3731591,25.891875 L27.3657446,23.790125 L31.3582052,25.891875 C31.5745436,26.00575 31.8109803,26.061875 32.0462936,26.061875 C32.3530122,26.061875 32.6583577,25.9665 32.9160163,25.779 C33.3715378,25.4475 33.5997355,24.886 33.5044867,24.33025 L32.741872,19.8785 L35.9719676,16.726 C36.3751834,16.332375 36.5203661,15.74375 36.3463467,15.207375 C36.1722024,14.671375 35.7094405,14.280625 35.1521787,14.1995 L35.1521787,14.1995 Z" id="Fill-3"></path>
            </g>
        </g>
    </g>
</svg>