<?xml version="1.0" encoding="UTF-8" standalone="no"?>
<svg width="80px" height="80px" viewBox="0 0 80 80" version="1.1" xmlns="http://www.w3.org/2000/svg" xmlns:xlink="http://www.w3.org/1999/xlink">
    <!-- Generator: Sketch 39.1 (31720) - http://www.bohemiancoding.com/sketch -->
    <title>icon-goal-wedding</title>
    <desc>Created with Sketch.</desc>
    <defs>
        <polygon id="path-1" points="0.0934913572 0.0230101661 0.0934913572 79.7815648 79.7777333 79.7815648 79.7777333 0.0230101661 0.0934913572 0.0230101661"></polygon>
    </defs>
    <g id="Page-1" stroke="none" stroke-width="1" fill="none" fill-rule="evenodd" opacity="0.24">
        <g id="icon-goal-wedding">
            <g id="fashion">
                <g id="Group-3">
                    <mask id="mask-2" fill="white">
                        <use xlink:href="#path-1"></use>
                    </mask>
                    <g id="Clip-2"></g>
                    <path d="M61.5547096,33.0845114 L68.036777,28.4531284 C68.5353976,28.0995044 68.7005657,27.4312019 68.4263244,26.8828511 L65.9363379,21.8994019 C65.7244241,21.4741185 65.2912475,21.2124057 64.8237907,21.2124057 L51.8518649,21.2124057 C49.4974409,9.06612447 38.6617926,0.0230101661 26.1791382,0.0230101661 C11.7409563,0.0230101661 0,11.7611439 0,26.1958549 C0,40.6227768 11.7409563,52.3686996 26.1791382,52.3686996 C28.4556528,52.3686996 30.6947708,52.0633679 32.8684448,51.4916499 C32.5692725,52.9824786 32.4118954,54.5278307 32.4118954,56.1043392 C32.4118954,69.1634998 43.0325136,79.7815648 56.0948143,79.7815648 C69.1571151,79.7815648 79.7777333,69.1634998 79.7777333,56.1043392 C79.7777333,44.9316922 71.9867869,35.559879 61.5547096,33.0845114 L61.5547096,33.0845114 Z M63.4229786,28.6836849 L58.3775617,32.2931416 L60.5387702,28.6836849 L63.4229786,28.6836849 Z M56.0948143,31.2462901 L54.5553233,28.6836849 L57.6343054,28.6836849 L56.0948143,31.2462901 Z M53.812067,32.2931416 L48.7666501,28.6836849 L51.6508585,28.6836849 L53.812067,32.2931416 Z M53.9523041,26.1958549 L54.5724634,23.7002357 L57.6171653,23.7002357 L58.2373246,26.1958549 L53.9523041,26.1958549 Z M51.3844081,26.1958549 L46.8921484,26.1958549 L48.140258,23.7002357 L52.0045675,23.7002357 L51.3844081,26.1958549 Z M44.1528516,28.4531284 L44.1653172,28.4655909 C43.0387463,37.3981003 35.4129679,44.3350492 26.1791382,44.3350492 C16.1724466,44.3350492 8.03402397,36.2001408 8.03402397,26.1958549 C8.03402397,16.1915689 16.1724466,8.05510274 26.1791382,8.05510274 C36.0518255,8.05510274 44.0920823,15.9781483 44.3055542,25.8001699 L43.7633043,26.8828511 C43.489063,27.4312019 43.6542311,28.0995044 44.1528516,28.4531284 L44.1528516,28.4531284 Z M46.435599,30.0841603 L50.6349191,33.0845114 C48.5048743,33.5892434 46.4839028,34.3681508 44.6156339,35.408771 C45.4492651,33.7465827 46.0756572,31.9644427 46.435599,30.0841603 L46.435599,30.0841603 Z M65.2974803,26.1958549 L60.8052206,26.1958549 L60.1850612,23.7002357 L64.0493707,23.7002357 L65.2974803,26.1958549 Z M26.1791382,49.8730804 C13.1168374,49.8730804 2.49621924,39.2487842 2.49621924,26.1958549 C2.49621924,13.1366943 13.1168374,2.51862931 26.1791382,2.51862931 C37.3108425,2.51862931 46.9949889,10.4588108 49.3135746,21.2124057 L47.365838,21.2124057 C46.9404523,21.2124057 46.5571377,21.436731 46.3312003,21.7903549 C44.3055542,12.5213575 36.0455928,5.56104141 26.1791382,5.56104141 C14.7965655,5.56104141 5.53936292,14.8160185 5.53936292,26.1958549 C5.53936292,37.56946 14.7965655,46.8244371 26.1791382,46.8244371 C29.4902905,46.8244371 32.6191345,46.0206047 35.3942697,44.6279183 C34.6821772,45.9053264 34.0978562,47.2497205 33.6288412,48.6564271 C31.2307879,49.447797 28.7345686,49.8730804 26.1791382,49.8730804 L26.1791382,49.8730804 Z M56.0948143,77.2937347 C44.4083947,77.2937347 34.9003237,67.7879494 34.9003237,56.1043392 C34.9003237,44.420729 44.4083947,34.9149437 56.0948143,34.9149437 C67.781234,34.9149437 77.289305,44.420729 77.289305,56.1043392 C77.289305,67.7879494 67.781234,77.2937347 56.0948143,77.2937347 L56.0948143,77.2937347 Z" id="Fill-1" fill="#FFFFFF" mask="url(#mask-2)"></path>
                </g>
                <path d="M56.0948143,37.4105629 C45.7842758,37.4105629 37.3965429,45.7962794 37.3965429,56.1043392 C37.3965429,66.412399 45.7842758,74.7981155 56.0948143,74.7981155 C66.4053529,74.7981155 74.7930858,66.412399 74.7930858,56.1043392 C74.7930858,45.7962794 66.4053529,37.4105629 56.0948143,37.4105629 L56.0948143,37.4105629 Z M56.0948143,72.3024964 C47.160157,72.3024964 39.8927621,65.0368487 39.8927621,56.1043392 C39.8927621,47.1718297 47.160157,39.906182 56.0948143,39.906182 C65.0294717,39.906182 72.2968666,47.1718297 72.2968666,56.1043392 C72.2968666,65.0368487 65.0294717,72.3024964 56.0948143,72.3024964 L56.0948143,72.3024964 Z" id="Fill-4" fill="#FFFFFF"></path>
                <polygon id="Fill-5" fill="#FFFFFF" points="69.8084383 9.98990859 72.2984247 9.98990859 72.2984247 5.00645938 69.8084383 5.00645938"></polygon>
                <polygon id="Fill-6" fill="#FFFFFF" points="69.8084383 14.9811469 72.2984247 14.9811469 72.2984247 12.4855277 69.8084383 12.4855277"></polygon>
                <polygon id="Fill-7" fill="#FFFFFF" points="69.8084383 22.4524262 72.2984247 22.4524262 72.2984247 17.4689769 69.8084383 17.4689769"></polygon>
                <polygon id="Fill-8" fill="#FFFFFF" points="74.7930858 14.9811469 79.7777333 14.9811469 79.7777333 12.4855277 74.7930858 12.4855277"></polygon>
                <polygon id="Fill-9" fill="#FFFFFF" points="62.3275715 14.9811469 67.312219 14.9811469 67.312219 12.4855277 62.3275715 12.4855277"></polygon>
                <polygon id="Fill-10" fill="#FFFFFF" points="53.5985951 9.98990859 56.0948143 9.98990859 56.0948143 7.50207852 58.5910336 7.50207852 58.5910336 5.00645938 56.0948143 5.00645938 56.0948143 2.51862931 53.5985951 2.51862931 53.5985951 5.00645938 51.1101668 5.00645938 51.1101668 7.50207852 53.5985951 7.50207852"></polygon>
                <polygon id="Fill-11" fill="#FFFFFF" points="22.4348094 57.3521488 24.9310286 57.3521488 24.9310286 54.8565296 22.4348094 54.8565296"></polygon>
                <polygon id="Fill-12" fill="#FFFFFF" points="27.4272478 57.3521488 29.9172343 57.3521488 29.9172343 54.8565296 27.4272478 54.8565296"></polygon>
                <polygon id="Fill-13" fill="#FFFFFF" points="17.4501618 57.3521488 19.9463811 57.3521488 19.9463811 54.8565296 17.4501618 54.8565296"></polygon>
            </g>
        </g>
    </g>
</svg>