<?xml version="1.0" encoding="UTF-8" standalone="no"?>
<svg width="64px" height="64px" viewBox="0 0 64 64" version="1.1" xmlns="http://www.w3.org/2000/svg" xmlns:xlink="http://www.w3.org/1999/xlink">
    <!-- Generator: Sketch 42 (36781) - http://www.bohemiancoding.com/sketch -->
    <title>icon-goal-emergency</title>
    <desc>Created with Sketch.</desc>
    <defs>
        <polygon id="path-1" points="0 63.7774086 47.8405316 63.7774086 47.8405316 0 0 0"></polygon>
    </defs>
    <g id="Dashboard-v2" stroke="none" stroke-width="1" fill="none" fill-rule="evenodd">
        <g id="icon-goal-emergency">
            <g id="wedding" transform="translate(8.000000, 0.000000)">
                <g id="Group-3">
                    <mask id="mask-2" fill="white">
                        <use xlink:href="#path-1"></use>
                    </mask>
                    <g id="Clip-2"></g>
                    <path d="M43.8538206,6.64451827 L33.054485,6.64451827 C32.5146179,4.55448505 30.7322259,2.95880399 28.545515,2.69601329 C27.6136213,1.05315615 25.8539867,0 23.9202658,0 C21.9865449,0 20.2269103,1.05315615 19.2950166,2.69601329 C17.1083056,2.95880399 15.3259136,4.55448505 14.7860465,6.64451827 L3.98671096,6.64451827 C1.78837209,6.64451827 0,8.43289037 0,10.6312292 L0,59.8006645 C0,61.9990033 1.78837209,63.7873754 3.98671096,63.7873754 L43.8538206,63.7873754 C46.0521595,63.7873754 47.8405316,61.9990033 47.8405316,59.8006645 L47.8405316,10.6312292 C47.8405316,8.43289037 46.0521595,6.64451827 43.8538206,6.64451827 L43.8538206,6.64451827 Z M19.9335548,5.31561462 L20.1612957,5.31561462 C20.7245847,5.31561462 21.2267442,4.96063123 21.4142857,4.42990033 C21.7887043,3.36960133 22.7956811,2.65780731 23.9202658,2.65780731 C25.0448505,2.65780731 26.0518272,3.36960133 26.4262458,4.42990033 C26.6137874,4.96063123 27.1159468,5.31561462 27.6792359,5.31561462 L27.9069767,5.31561462 C29.3727575,5.31561462 30.5647841,6.5076412 30.5647841,7.97342193 C30.5647841,9.43920266 29.3727575,10.6312292 27.9069767,10.6312292 L19.9335548,10.6312292 C18.4677741,10.6312292 17.2757475,9.43920266 17.2757475,7.97342193 C17.2757475,6.5076412 18.4677741,5.31561462 19.9335548,5.31561462 L19.9335548,5.31561462 Z M9.30232558,9.30232558 L14.7860465,9.30232558 C15.3777409,11.5921927 17.4612957,13.2890365 19.9335548,13.2890365 L27.9069767,13.2890365 C30.3792359,13.2890365 32.4627907,11.5921927 33.054485,9.30232558 L38.538206,9.30232558 L38.538206,54.4850498 L9.30232558,54.4850498 L9.30232558,9.30232558 Z M45.1827243,59.8006645 C45.1827243,60.5332226 44.5863787,61.1295681 43.8538206,61.1295681 L3.98671096,61.1295681 C3.25415282,61.1295681 2.65780731,60.5332226 2.65780731,59.8006645 L2.65780731,10.6312292 C2.65780731,9.8986711 3.25415282,9.30232558 3.98671096,9.30232558 L6.64451827,9.30232558 L6.64451827,54.4850498 C6.64451827,55.9508306 7.83654485,57.1428571 9.30232558,57.1428571 L38.538206,57.1428571 C40.0039867,57.1428571 41.1960133,55.9508306 41.1960133,54.4850498 L41.1960133,9.30232558 L43.8538206,9.30232558 C44.5863787,9.30232558 45.1827243,9.8986711 45.1827243,10.6312292 L45.1827243,59.8006645 Z" id="Fill-1" fill="#FFFFFF" mask="url(#mask-2)"></path>
                </g>
                <path d="M18.6046512,21.2624585 L29.2358804,21.2624585 C29.9697674,21.2624585 30.5647841,20.6674419 30.5647841,19.9335548 C30.5647841,19.1996678 29.9697674,18.6046512 29.2358804,18.6046512 L18.6046512,18.6046512 C17.8707641,18.6046512 17.2757475,19.1996678 17.2757475,19.9335548 C17.2757475,20.6674419 17.8707641,21.2624585 18.6046512,21.2624585 L18.6046512,21.2624585 Z" id="Fill-4" fill="#FFFFFF"></path>
                <path d="M29.2358804,31.8936877 L18.6046512,31.8936877 C17.8707641,31.8936877 17.2757475,32.4887043 17.2757475,33.2225914 C17.2757475,33.9564784 17.8707641,34.551495 18.6046512,34.551495 L29.2358804,34.551495 C29.9697674,34.551495 30.5647841,33.9564784 30.5647841,33.2225914 C30.5647841,32.4887043 29.9697674,31.8936877 29.2358804,31.8936877 L29.2358804,31.8936877 Z" id="Fill-5" fill="#FFFFFF"></path>
                <path d="M26.3119601,39.8671096 C25.4465116,39.8671096 24.6099668,40.145515 23.9202658,40.636711 C23.2305648,40.145515 22.3940199,39.8671096 21.5285714,39.8671096 C19.2568106,39.8671096 17.408804,41.7151163 17.408804,43.9868771 C17.408804,45.1425249 17.9181063,46.229402 18.805814,46.9697674 L22.3642857,49.9350498 C22.8003322,50.298505 23.3531561,50.4983389 23.9202658,50.4983389 C24.4873754,50.4983389 25.0401993,50.298505 25.4755814,49.9350498 L29.0347176,46.969103 C29.9224252,46.229402 30.4317276,45.1425249 30.4317276,43.9868771 C30.4317276,41.7151163 28.5837209,39.8671096 26.3119601,39.8671096 L26.3119601,39.8671096 Z M27.3333887,44.9277409 L23.9202658,47.7717608 L20.5071429,44.9277409 C20.2269103,44.694186 20.0666113,44.351495 20.0666113,43.9868771 C20.0666113,43.180897 20.7219269,42.5249169 21.5285714,42.5249169 C22.0456811,42.5249169 22.5141196,42.7903654 22.7820598,43.2347176 C23.0222591,43.633887 23.4543189,43.877907 23.9202658,43.877907 C24.3862126,43.877907 24.817608,43.633887 25.0584718,43.2347176 C25.326412,42.7903654 25.7948505,42.5249169 26.3119601,42.5249169 C27.1186047,42.5249169 27.7739203,43.180897 27.7739203,43.9868771 C27.7739203,44.351495 27.6136213,44.694186 27.3333887,44.9277409 L27.3333887,44.9277409 Z" id="Fill-6" fill="#FFFFFF"></path>
                <path d="M33.2225914,25.2491694 L14.6179402,25.2491694 C13.8840532,25.2491694 13.2890365,25.844186 13.2890365,26.5780731 C13.2890365,27.3119601 13.8840532,27.9069767 14.6179402,27.9069767 L33.2225914,27.9069767 C33.9564784,27.9069767 34.551495,27.3119601 34.551495,26.5780731 C34.551495,25.844186 33.9564784,25.2491694 33.2225914,25.2491694 L33.2225914,25.2491694 Z" id="Fill-7" fill="#FFFFFF"></path>
            </g>
        </g>
    </g>
</svg>