<?xml version="1.0" encoding="UTF-8" standalone="no"?>
<svg width="80px" height="80px" viewBox="0 0 80 80" version="1.1" xmlns="http://www.w3.org/2000/svg" xmlns:xlink="http://www.w3.org/1999/xlink">
    <!-- Generator: Sketch 39.1 (31720) - http://www.bohemiancoding.com/sketch -->
    <title>icon-goal-house</title>
    <desc>Created with Sketch.</desc>
    <defs></defs>
    <g id="Page-1" stroke="none" stroke-width="1" fill="none" fill-rule="evenodd" opacity="0.639999986">
        <g id="icon-goal-house" fill="#FFFFFF">
            <g id="house-1" transform="translate(0.000000, 7.000000)">
                <path d="M77.7763881,26.5474933 C78.008841,26.7301348 78.291752,26.8245822 78.5772507,26.8245822 C78.7693801,26.8245822 78.962372,26.7825337 79.141779,26.6947709 C79.5872776,26.4782749 79.8701887,26.0269542 79.8701887,25.5307817 L79.8701887,18.6305121 C79.8701887,18.2346092 79.6892722,17.8598383 79.3774663,17.6146631 L58.3146092,1.01929919 C56.8379515,-0.144690027 54.7743396,-0.144043127 53.2968194,1.01929919 L45.368841,7.26598383 L45.368841,4.82997305 C45.368841,4.11557951 44.7902965,3.53617251 44.0750404,3.53617251 L38.5554717,3.53617251 C37.8410782,3.53617251 37.2616712,4.11557951 37.2616712,4.82997305 L37.2616712,13.654124 L32.2346092,17.6146631 C31.9230189,17.8598383 31.7410243,18.2346092 31.7410243,18.6305121 L31.7410243,25.5307817 C31.7410243,26.0269542 32.0241509,26.4782749 32.4705121,26.6947709 C32.9160108,26.9112668 33.4466846,26.854124 33.835903,26.5474933 L34.5013477,26.0226415 L34.5013477,38.6305121 L22.4334232,29.122372 C20.9561186,27.9592453 18.8922911,27.9592453 17.4158491,29.122372 L0.492722372,42.4554178 C0.181994609,42.700593 0,43.0753639 0,43.4712668 L0,50.3715364 C0,50.8677089 0.282911051,51.3201078 0.728625337,51.5357412 C0.908032345,51.6232884 1.10167116,51.6653369 1.29380054,51.6653369 C1.57843666,51.6653369 1.86156334,51.571752 2.09487871,51.388248 L2.76032345,50.8633962 L2.76032345,64.2587601 L1.29380054,64.2587601 C0.579622642,64.2587601 0,64.8383827 0,65.5525606 C0,66.2669542 0.579622642,66.8463612 1.29380054,66.8463612 L78.5763881,66.8463612 C79.2916442,66.8463612 79.8701887,66.2669542 79.8701887,65.5525606 C79.8701887,64.8383827 79.2916442,64.2587601 78.5763881,64.2587601 L77.1109434,64.2587601 L77.1109434,26.0226415 L77.7763881,26.5474933 Z M39.8492722,6.12377358 L42.7812399,6.12377358 L42.7812399,9.30436658 L39.8492722,11.6148787 L39.8492722,6.12377358 Z M34.3286253,19.2588679 L54.8989757,3.05185984 C55.4328841,2.6315903 56.1791914,2.6315903 56.7133154,3.05185984 L77.2825876,19.2588679 L77.2825876,22.8640431 L56.6063612,6.57444744 C56.3721833,6.3890027 56.0890566,6.29649596 55.8061456,6.29649596 C55.5230189,6.29649596 55.2401078,6.3890027 55.0050674,6.57444744 L34.3286253,22.8640431 L34.3286253,19.2588679 Z M2.58760108,44.0996226 L19.0169272,31.1549326 C19.5510512,30.7338005 20.298221,30.7338005 20.8321294,31.1549326 L34.5013477,41.9247439 L34.5013477,45.5307817 L20.7251752,34.6766577 C20.25531,34.3068464 19.5930997,34.3068464 19.124097,34.6766577 L2.58760108,47.7056604 L2.58760108,44.0996226 Z M5.34792453,48.8250135 L19.924097,37.3399461 L34.5013477,48.8250135 L34.5013477,64.2587601 L28.8090566,64.2587601 L28.8090566,48.9919137 C28.8090566,48.2775202 28.229434,47.6981132 27.5152561,47.6981132 L12.3340162,47.6981132 C11.6198383,47.6981132 11.0402156,48.2775202 11.0402156,48.9919137 L11.0402156,64.2587601 L5.34792453,64.2587601 L5.34792453,48.8250135 Z M13.6278167,58.7383288 L26.2214555,58.7383288 L26.2214555,55.8061456 L13.6278167,55.8061456 L13.6278167,58.7383288 Z M13.6278167,53.2185445 L26.2214555,53.2185445 L26.2214555,50.2857143 L13.6278167,50.2857143 L13.6278167,53.2185445 Z M13.6278167,64.2587601 L26.2214555,64.2587601 L26.2214555,61.3259299 L13.6278167,61.3259299 L13.6278167,64.2587601 Z M51.0622102,54.6024798 C51.033531,54.6007547 51.0048518,54.5983827 50.97531,54.5983827 C50.635903,54.5983827 50.3014555,54.7363881 50.0614555,54.9781132 C49.8197305,55.2174663 49.6815094,55.5525606 49.6815094,55.8921833 C49.6815094,56.2324528 49.8197305,56.5669003 50.0614555,56.8069003 C50.3014555,57.0477628 50.635903,57.1859838 50.97531,57.1859838 C51.0048518,57.1859838 51.033531,57.1833962 51.0622102,57.1816712 L51.0622102,64.2587601 L45.368841,64.2587601 L45.368841,47.5253908 L51.0622102,47.5253908 L51.0622102,54.6024798 Z M74.5233423,64.2587601 L53.6498113,64.2587601 L53.6498113,46.2315903 C53.6498113,45.5171968 53.0701887,44.9377898 52.3560108,44.9377898 L44.0750404,44.9377898 C43.3608625,44.9377898 42.7812399,45.5171968 42.7812399,46.2315903 L42.7812399,64.2587601 L37.0889488,64.2587601 L37.0889488,23.9842588 L55.8061456,9.23773585 L74.5233423,23.9842588 L74.5233423,64.2587601 Z" id="Fill-1"></path>
                <path d="M59.2562803,58.5656065 L67.5361725,58.5656065 C68.250566,58.5656065 68.829973,57.9868464 68.829973,57.2718059 L68.829973,46.2315903 C68.829973,45.5171968 68.250566,44.9377898 67.5361725,44.9377898 L59.2562803,44.9377898 C58.5418868,44.9377898 57.9624798,45.5171968 57.9624798,46.2315903 L57.9624798,57.2718059 C57.9624798,57.9868464 58.5418868,58.5656065 59.2562803,58.5656065 L59.2562803,58.5656065 Z M60.5500809,55.9780054 L66.242372,55.9780054 L66.242372,51.6653369 L60.5500809,51.6653369 L60.5500809,55.9780054 Z M60.5500809,49.0777358 L66.242372,49.0777358 L66.242372,47.5253908 L60.5500809,47.5253908 L60.5500809,49.0777358 Z" id="Fill-3"></path>
                <path d="M59.2562803,39.245283 L67.5361725,39.245283 C68.250566,39.245283 68.829973,38.665876 68.829973,37.9514825 L68.829973,26.9112668 C68.829973,26.1962264 68.250566,25.6174663 67.5361725,25.6174663 L59.2562803,25.6174663 C58.5418868,25.6174663 57.9624798,26.1962264 57.9624798,26.9112668 L57.9624798,37.9514825 C57.9624798,38.665876 58.5418868,39.245283 59.2562803,39.245283 L59.2562803,39.245283 Z M60.5500809,36.6576819 L66.242372,36.6576819 L66.242372,32.3450135 L60.5500809,32.3450135 L60.5500809,36.6576819 Z M60.5500809,29.7574124 L66.242372,29.7574124 L66.242372,28.2050674 L60.5500809,28.2050674 L60.5500809,29.7574124 Z" id="Fill-4"></path>
                <path d="M52.3560108,25.6174663 L44.0750404,25.6174663 C43.3608625,25.6174663 42.7812399,26.1962264 42.7812399,26.9112668 L42.7812399,37.9514825 C42.7812399,38.665876 43.3608625,39.245283 44.0750404,39.245283 L52.3560108,39.245283 C53.0701887,39.245283 53.6498113,38.665876 53.6498113,37.9514825 L53.6498113,26.9112668 C53.6498113,26.1962264 53.0701887,25.6174663 52.3560108,25.6174663 L52.3560108,25.6174663 Z M45.368841,29.7574124 L51.0622102,29.7574124 L51.0622102,28.2050674 L45.368841,28.2050674 L45.368841,29.7574124 Z M45.368841,36.6576819 L51.0622102,36.6576819 L51.0622102,32.3450135 L45.368841,32.3450135 L45.368841,36.6576819 Z" id="Fill-5"></path>
            </g>
        </g>
    </g>
</svg>