<?xml version="1.0" encoding="UTF-8" standalone="no"?>
<svg width="64px" height="64px" viewBox="0 0 64 64" version="1.1" xmlns="http://www.w3.org/2000/svg" xmlns:xlink="http://www.w3.org/1999/xlink">
    <!-- Generator: Sketch 42 (36781) - http://www.bohemiancoding.com/sketch -->
    <title>icon-goal-wedding</title>
    <desc>Created with Sketch.</desc>
    <defs>
        <polygon id="path-1" points="0.0745446038 0.0183469763 0.0745446038 63.6132078 63.6101528 63.6132078 63.6101528 0.0183469763 0.0745446038 0.0183469763"></polygon>
    </defs>
    <g id="Dashboard-v2" stroke="none" stroke-width="1" fill="none" fill-rule="evenodd">
        <g id="icon-goal-wedding">
            <g id="fashion">
                <g id="Group-3">
                    <mask id="mask-2" fill="white">
                        <use xlink:href="#path-1"></use>
                    </mask>
                    <g id="Clip-2"></g>
                    <path d="M49.0801671,26.3796769 L54.248593,22.6868798 C54.6461642,22.4049205 54.7778597,21.8720547 54.5591955,21.4348315 L52.5738242,17.4613172 C52.4048565,17.1222207 52.0594665,16.913546 51.6867434,16.913546 L41.3436797,16.913546 C39.4663981,7.22880357 30.8266785,0.0183469763 20.8737315,0.0183469763 C9.36155983,0.0183469763 0,9.37765626 0,20.8870604 C0,32.3902539 9.36155983,41.7557737 20.8737315,41.7557737 C22.6888926,41.7557737 24.4742358,41.5123199 26.2073979,41.056465 C25.9688551,42.2451656 25.8433717,43.4773401 25.8433717,44.7343568 C25.8433717,55.1469766 34.3116387,63.6132078 44.7267623,63.6132078 C55.1418858,63.6132078 63.6101528,55.1469766 63.6101528,44.7343568 C63.6101528,35.825934 57.3981025,28.3533919 49.0801671,26.3796769 L49.0801671,26.3796769 Z M50.5698168,22.8707122 L46.546893,25.7486843 L48.2701158,22.8707122 L50.5698168,22.8707122 Z M44.7267623,24.9139855 L43.4992611,22.8707122 L45.9542634,22.8707122 L44.7267623,24.9139855 Z M42.9066315,25.7486843 L38.8837077,22.8707122 L41.1834088,22.8707122 L42.9066315,25.7486843 Z M43.0184484,20.8870604 L43.5129276,18.8971979 L45.9405969,18.8971979 L46.4350761,20.8870604 L43.0184484,20.8870604 Z M40.9709567,20.8870604 L37.3890884,20.8870604 L38.3842589,18.8971979 L41.4654359,18.8971979 L40.9709567,20.8870604 Z M35.2049315,22.6868798 L35.2148708,22.6968166 C34.3166084,29.8190833 28.2362535,35.3502053 20.8737315,35.3502053 C12.894974,35.3502053 6.40586629,28.8638997 6.40586629,20.8870604 C6.40586629,12.910221 12.894974,6.42267328 20.8737315,6.42267328 C28.7456416,6.42267328 35.1564776,12.7400518 35.3266877,20.5715641 L34.894329,21.4348315 C34.6756649,21.8720547 34.8073603,22.4049205 35.2049315,22.6868798 L35.2049315,22.6868798 Z M37.0250623,23.9873704 L40.3733574,26.3796769 C38.6749829,26.782121 37.063577,27.4031767 35.5739273,28.2329071 C36.2386167,26.9075742 36.7380656,25.4865988 37.0250623,23.9873704 L37.0250623,23.9873704 Z M52.0644361,20.8870604 L48.4825679,20.8870604 L47.9880887,18.8971979 L51.0692656,18.8971979 L52.0644361,20.8870604 Z M20.8737315,39.7659113 C10.4586079,39.7659113 1.99034092,31.2947117 1.99034092,20.8870604 C1.99034092,10.4744406 10.4586079,2.00820942 20.8737315,2.00820942 C29.749509,2.00820942 37.4710875,8.33925114 39.3197937,16.913546 L37.7667811,16.913546 C37.4276032,16.913546 37.1219703,17.0924101 36.9418208,17.3743694 C35.3266877,9.98380662 28.740672,4.43405295 20.8737315,4.43405295 C11.797926,4.43405295 4.41676777,11.8134367 4.41676777,20.8870604 C4.41676777,29.9557156 11.797926,37.3350993 20.8737315,37.3350993 C23.5138529,37.3350993 26.0086123,36.6941698 28.2213446,35.5837223 C27.6535632,36.6022536 27.1876594,37.6741957 26.813694,38.7958223 C24.9016249,39.4268149 22.911284,39.7659113 20.8737315,39.7659113 L20.8737315,39.7659113 Z M44.7267623,61.6295559 C35.4086868,61.6295559 27.8275006,54.0501922 27.8275006,44.7343568 C27.8275006,35.4185215 35.4086868,27.8391578 44.7267623,27.8391578 C54.0448377,27.8391578 61.6260239,35.4185215 61.6260239,44.7343568 C61.6260239,54.0501922 54.0448377,61.6295559 44.7267623,61.6295559 L44.7267623,61.6295559 Z" id="Fill-1" fill="#FFFFFF" mask="url(#mask-2)"></path>
                </g>
                <path d="M44.7267623,29.8290202 C36.5057349,29.8290202 29.8178415,36.5153058 29.8178415,44.7343568 C29.8178415,52.9534079 36.5057349,59.6396935 44.7267623,59.6396935 C52.9477897,59.6396935 59.635683,52.9534079 59.635683,44.7343568 C59.635683,36.5153058 52.9477897,29.8290202 44.7267623,29.8290202 L44.7267623,29.8290202 Z M44.7267623,57.649831 C37.602783,57.649831 31.8081824,51.8566235 31.8081824,44.7343568 C31.8081824,37.6120902 37.602783,31.8188827 44.7267623,31.8188827 C51.8507416,31.8188827 57.6453421,37.6120902 57.6453421,44.7343568 C57.6453421,51.8566235 51.8507416,57.649831 44.7267623,57.649831 L44.7267623,57.649831 Z" id="Fill-4" fill="#FFFFFF"></path>
                <polygon id="Fill-5" fill="#FFFFFF" points="55.6612132 7.96537562 57.6465845 7.96537562 57.6465845 3.9918613 55.6612132 3.9918613"></polygon>
                <polygon id="Fill-6" fill="#FFFFFF" points="55.6612132 11.9451005 57.6465845 11.9451005 57.6465845 9.95523806 55.6612132 9.95523806"></polygon>
                <polygon id="Fill-7" fill="#FFFFFF" points="55.6612132 17.9022667 57.6465845 17.9022667 57.6465845 13.9287524 55.6612132 13.9287524"></polygon>
                <polygon id="Fill-8" fill="#FFFFFF" points="59.635683 11.9451005 63.6101528 11.9451005 63.6101528 9.95523806 59.635683 9.95523806"></polygon>
                <polygon id="Fill-9" fill="#FFFFFF" points="49.6964025 11.9451005 53.6708723 11.9451005 53.6708723 9.95523806 49.6964025 9.95523806"></polygon>
                <polygon id="Fill-10" fill="#FFFFFF" points="42.7364213 7.96537562 44.7267623 7.96537562 44.7267623 5.98172374 46.7171032 5.98172374 46.7171032 3.9918613 44.7267623 3.9918613 44.7267623 2.00820942 42.7364213 2.00820942 42.7364213 3.9918613 40.7522925 3.9918613 40.7522925 5.98172374 42.7364213 5.98172374"></polygon>
                <polygon id="Fill-11" fill="#FFFFFF" points="17.8882201 45.7292881 19.878561 45.7292881 19.878561 43.7394256 17.8882201 43.7394256"></polygon>
                <polygon id="Fill-12" fill="#FFFFFF" points="21.8689019 45.7292881 23.8542732 45.7292881 23.8542732 43.7394256 21.8689019 43.7394256"></polygon>
                <polygon id="Fill-13" fill="#FFFFFF" points="13.9137503 45.7292881 15.9040912 45.7292881 15.9040912 43.7394256 13.9137503 43.7394256"></polygon>
            </g>
        </g>
    </g>
</svg>