<?xml version="1.0" encoding="UTF-8" standalone="no"?>
<svg width="80px" height="80px" viewBox="0 0 80 80" version="1.1" xmlns="http://www.w3.org/2000/svg" xmlns:xlink="http://www.w3.org/1999/xlink">
    <!-- Generator: Sketch 43.2 (39069) - http://www.bohemiancoding.com/sketch -->
    <title>icon-coins</title>
    <desc>Created with Sketch.</desc>
    <defs></defs>
    <g id="Dashboard-v2" stroke="none" stroke-width="1" fill="none" fill-rule="evenodd">
        <g id="icon-coins">
            <circle id="Oval-5" fill="#4C3E70" cx="40" cy="40" r="40"></circle>
            <g id="coins" transform="translate(20.000000, 22.000000)">
                <path d="M19.6112193,30.7706532 C9.89986592,30.7706532 2.02714358,28.766334 2.02714358,26.7121393 L2.02714358,31.4443952 C2.03390636,33.4985899 9.90324731,35.5062905 19.6112193,35.5062905 C29.3200367,35.5062905 37.1885323,33.4985899 37.1952951,31.4443952 L37.1952951,26.7121393 C37.1952951,28.766334 29.3234181,30.7706532 19.6112193,30.7706532" id="Fill-1" fill="#E4AF18"></path>
                <path d="M17.5840757,23.3307488 C7.87187699,23.3307488 0,21.329811 0,19.2722349 L0,24.0044909 C0.00676278092,26.0586856 7.87525838,28.0663862 17.5840757,28.0663862 C27.2920477,28.0663862 35.1613887,26.0586856 35.1681515,24.0044909 L35.1681515,19.2722349 C35.1681515,21.329811 27.2954291,23.3307488 17.5840757,23.3307488" id="Fill-2" fill="#F4BF1A"></path>
                <path d="M21.6425896,15.8908445 C11.9303909,15.8908445 4.0585139,13.8899067 4.0585139,11.8365573 L4.0585139,16.5645865 C4.06189529,18.6187812 11.9337723,20.6264818 21.6425896,20.6264818 C31.3505616,20.6264818 39.2199026,18.6187812 39.2224386,16.5645865 L39.2224386,11.8365573 C39.2224386,13.8899067 31.3505616,15.8908445 21.6425896,15.8908445" id="Fill-3" fill="#E4AF18"></path>
                <path d="M35.1681515,3.80829101 C35.1681515,5.86248571 27.2954291,7.7780434 17.5840757,7.7780434 C7.87187699,7.7780434 0,5.86248571 0,3.80829101 C0,1.75156026 7.87187699,0.338139046 17.5840757,0.338139046 C27.2954291,0.338139046 35.1681515,1.75156026 35.1681515,3.80829101" id="Fill-4" fill="#FFD949"></path>
                <path d="M17.5840757,7.7780434 C7.87187699,7.7780434 0,5.77372421 0,3.71952951 L0,8.45178545 C0.00676278092,10.5051348 7.87525838,12.509454 17.5840757,12.509454 C27.2920477,12.509454 35.1613887,10.5051348 35.1681515,8.45178545 L35.1681515,3.71952951 C35.1681515,5.77372421 27.2954291,7.7780434 17.5840757,7.7780434" id="Fill-5" fill="#F4BF1A"></path>
                <path d="M2.70426702,5.79992999 L2.70426702,10.5288045 C3.117642,10.6801218 3.56652159,10.8255216 4.0585139,10.9641586 L4.0585139,6.23612936 C3.56652159,6.09411096 3.117642,5.94871117 2.70426702,5.79992999" id="Fill-6" fill="#DCA814"></path>
                <path d="M31.1096376,6.23612936 L31.1096376,10.9641586 C31.5982485,10.8255216 32.0505095,10.6801218 32.4596577,10.5288045 L32.4596577,5.79992999 C32.0505095,5.94871117 31.5982485,6.09411096 31.1096376,6.23612936" id="Fill-7" fill="#DCA814"></path>
                <path d="M6.08565748,6.72474028 L6.08565748,11.4561509 C6.51847546,11.5491391 6.97073643,11.6311378 7.43990436,11.7139819 L7.43990436,6.98172595 C6.97073643,6.89972723 6.51847546,6.81688317 6.08565748,6.72474028" id="Fill-8" fill="#DCA814"></path>
                <path d="M27.7282471,6.98172595 L27.7282471,11.7139819 C28.1965697,11.6311378 28.6462946,11.5491391 29.0782673,11.4561509 L29.0782673,6.72474028 C28.6462946,6.81688317 28.1965697,6.89972723 27.7282471,6.98172595" id="Fill-9" fill="#DCA814"></path>
                <path d="M9.46704794,7.2826697 L9.46704794,12.0149257 C9.91001009,12.0707186 10.3588897,12.1231301 10.8212948,12.1730057 L10.8212948,7.44074971 C10.3588897,7.39171954 9.91001009,7.33846265 9.46704794,7.2826697" id="Fill-10" fill="#DCA814"></path>
                <path d="M24.3468567,7.44074971 L24.3468567,12.1730057 C24.8092618,12.1231301 25.2581414,12.0707186 25.6968768,12.0149257 L25.6968768,7.2826697 C25.2581414,7.33846265 24.8092618,7.39171954 24.3468567,7.44074971" id="Fill-11" fill="#DCA814"></path>
                <path d="M12.8484384,7.61235527 L12.8484384,12.3479926 C13.2947819,12.3775798 13.7436615,12.4071669 14.2026853,12.4274553 L14.2026853,7.69519934 C13.7436615,7.67237495 13.2947819,7.64616918 12.8484384,7.61235527" id="Fill-12" fill="#DCA814"></path>
                <path d="M20.9654662,7.69519934 L20.9654662,12.4274553 C21.4211086,12.4071669 21.8733695,12.3775798 22.3154863,12.3479926 L22.3154863,7.61235527 C21.8733695,7.64616918 21.4211086,7.67237495 20.9654662,7.69519934" id="Fill-13" fill="#DCA814"></path>
                <path d="M17.5840757,7.7780434 C17.3558319,7.7780434 17.1318148,7.77466201 16.9069523,7.77466201 L16.9069523,12.506918 C17.1318148,12.509454 17.3558319,12.509454 17.5840757,12.509454 C17.8080929,12.509454 18.0363367,12.509454 18.2611992,12.506918 L18.2611992,7.77466201 C18.0363367,7.77466201 17.8080929,7.7780434 17.5840757,7.7780434" id="Fill-14" fill="#DCA814"></path>
                <path d="M6.76278092,13.9135764 L6.76278092,18.644987 C7.17531056,18.7971496 7.62503549,18.9425494 8.1170278,19.0811864 L8.1170278,14.3489304 C7.62503549,14.2102934 7.17531056,14.0648936 6.76278092,13.9135764" id="Fill-15" fill="#C49213"></path>
                <path d="M35.1681515,14.3489304 L35.1681515,19.0811864 C35.6567624,18.9425494 36.1090234,18.7971496 36.5181716,18.644987 L36.5181716,13.9135764 C36.1090234,14.0648936 35.6567624,14.2102934 35.1681515,14.3489304" id="Fill-16" fill="#C49213"></path>
                <path d="M10.1441714,14.8409227 L10.1441714,19.5731787 C10.5769894,19.6619402 11.0292503,19.7481656 11.4984183,19.8276283 L11.4984183,15.0953724 C11.0292503,15.0159097 10.5769894,14.9305296 10.1441714,14.8409227" id="Fill-17" fill="#C49213"></path>
                <path d="M31.786761,15.0953724 L31.786761,19.8310097 C32.2550836,19.7481656 32.7048085,19.6619402 33.1367812,19.5731787 L33.1367812,14.8409227 C32.7048085,14.9305296 32.2550836,15.0159097 31.786761,15.0953724" id="Fill-18" fill="#C49213"></path>
                <path d="M13.5255618,15.3988522 L13.5255618,20.1311081 C13.9676786,20.186901 14.4174036,20.2401579 14.8798087,20.2900335 L14.8798087,15.5543961 C14.4174036,15.507902 13.9676786,15.4554904 13.5255618,15.3988522" id="Fill-19" fill="#C49213"></path>
                <path d="M28.4053706,15.5543961 L28.4053706,20.2900335 C28.8643943,20.2401579 29.3166553,20.186901 29.7553907,20.1311081 L29.7553907,15.3988522 C29.3166553,15.4554904 28.8643943,15.507902 28.4053706,15.5543961" id="Fill-20" fill="#C49213"></path>
                <path d="M16.9069523,15.7293831 L16.9069523,20.461639 C17.3524505,20.4946076 17.8021754,20.5208134 18.2611992,20.5436377 L18.2611992,15.8088457 C17.8021754,15.7885574 17.3524505,15.7589702 16.9069523,15.7293831" id="Fill-21" fill="#C49213"></path>
                <path d="M25.0239801,15.8088457 L25.0239801,20.5436377 C25.4796225,20.5208134 25.9318834,20.4946076 26.3740002,20.461639 L26.3740002,15.7293831 C25.9318834,15.7589702 25.4796225,15.7885574 25.0239801,15.8088457" id="Fill-22" fill="#C49213"></path>
                <path d="M21.6425896,15.8908445 C21.4143458,15.8908445 21.1894833,15.8908445 20.9654662,15.8883084 L20.9654662,20.6231004 C21.1894833,20.6231004 21.4143458,20.6264818 21.6425896,20.6264818 C21.8666068,20.6264818 22.0914692,20.6231004 22.3154863,20.6231004 L22.3154863,15.8883084 C22.0914692,15.8908445 21.8666068,15.8908445 21.6425896,15.8908445" id="Fill-23" fill="#C49213"></path>
                <path d="M2.70426702,21.3526354 L2.70426702,26.0848914 C3.117642,26.2336725 3.56652159,26.3790723 4.0585139,26.5210907 L4.0585139,21.7888348 C3.56652159,21.6501978 3.117642,21.504798 2.70426702,21.3526354" id="Fill-24" fill="#DCA814"></path>
                <path d="M31.1096376,21.7888348 L31.1096376,26.5210907 C31.5982485,26.3824537 32.0505095,26.2336725 32.4596577,26.0848914 L32.4596577,21.3526354 C32.0505095,21.504798 31.5982485,21.6501978 31.1096376,21.7888348" id="Fill-25" fill="#DCA814"></path>
                <path d="M6.08565748,22.2808271 L6.08565748,27.013083 C6.51847546,27.1018445 6.97073643,27.18807 7.43990436,27.2666873 L7.43990436,22.5352767 C6.97073643,22.455814 6.51847546,22.3704339 6.08565748,22.2808271" id="Fill-26" fill="#DCA814"></path>
                <path d="M27.7282471,22.5352767 L27.7282471,27.2666873 C28.1965697,27.18807 28.6462946,27.1018445 29.0782673,27.013083 L29.0782673,22.2808271 C28.6462946,22.3704339 28.1965697,22.455814 27.7282471,22.5352767" id="Fill-27" fill="#DCA814"></path>
                <path d="M9.46704794,22.8387565 L9.46704794,27.5710125 C9.91001009,27.6268054 10.3588897,27.6800623 10.8212948,27.7257111 L10.8212948,22.9943005 C10.3588897,22.9478064 9.91001009,22.8953948 9.46704794,22.8387565" id="Fill-28" fill="#DCA814"></path>
                <path d="M24.3468567,22.9943005 L24.3468567,27.7257111 C24.8092618,27.6800623 25.2581414,27.6268054 25.6968768,27.5710125 L25.6968768,22.8387565 C25.2581414,22.8953948 24.8092618,22.9478064 24.3468567,22.9943005" id="Fill-29" fill="#DCA814"></path>
                <path d="M12.8484384,23.1692874 L12.8484384,27.900698 C13.2947819,27.9345119 13.7436615,27.9607177 14.2026853,27.9835421 L14.2026853,23.2487501 C13.7436615,23.2250804 13.2947819,23.1988746 12.8484384,23.1692874" id="Fill-30" fill="#DCA814"></path>
                <path d="M20.9654662,23.2487501 L20.9654662,27.9835421 C21.4211086,27.9607177 21.8733695,27.9345119 22.3154863,27.900698 L22.3154863,23.1692874 C21.8733695,23.1988746 21.4211086,23.2250804 20.9654662,23.2487501" id="Fill-31" fill="#DCA814"></path>
                <path d="M17.5840757,23.3307488 C17.3558319,23.3307488 17.1318148,23.3307488 16.9069523,23.3273674 L16.9069523,28.0630048 C17.1318148,28.0630048 17.3558319,28.0663862 17.5840757,28.0663862 C17.8080929,28.0663862 18.0363367,28.0630048 18.2611992,28.0630048 L18.2611992,23.3273674 C18.0363367,23.3307488 17.8080929,23.3307488 17.5840757,23.3307488" id="Fill-32" fill="#DCA814"></path>
                <path d="M4.73563734,28.7925398 L4.73563734,33.5214143 C5.14478558,33.6735769 5.59704656,33.8181313 6.08565748,33.9601497 L6.08565748,29.2287391 C5.59704656,29.0901021 5.14478558,28.9413209 4.73563734,28.7925398" id="Fill-33" fill="#C49213"></path>
                <path d="M33.1367812,29.2287391 L33.1367812,33.9601497 C33.6287735,33.8181313 34.0776531,33.6735769 34.491028,33.5214143 L34.491028,28.7925398 C34.0776531,28.9447023 33.6287735,29.0901021 33.1367812,29.2287391" id="Fill-34" fill="#C49213"></path>
                <path d="M8.1170278,29.7207314 L8.1170278,34.452142 C8.54900043,34.5417489 8.99872536,34.6279743 9.46704794,34.7065917 L9.46704794,29.9751811 C8.99872536,29.8957184 8.54900043,29.8094929 8.1170278,29.7207314" id="Fill-35" fill="#C49213"></path>
                <path d="M29.7553907,29.9751811 L29.7553907,34.7065917 C30.2245586,34.6279743 30.6768196,34.5417489 31.1096376,34.452142 L31.1096376,29.7207314 C30.6768196,29.8094929 30.2245586,29.8957184 29.7553907,29.9751811" id="Fill-36" fill="#C49213"></path>
                <path d="M11.4984183,30.2752795 L11.4984183,35.0109168 C11.9371537,35.0667098 12.3860333,35.1199667 12.8484384,35.1656154 L12.8484384,30.4342048 C12.3860333,30.3843293 11.9371537,30.3310724 11.4984183,30.2752795" id="Fill-37" fill="#C49213"></path>
                <path d="M26.3740002,30.4342048 L26.3740002,35.1656154 C26.8364054,35.1199667 27.285285,35.0667098 27.7282471,35.0109168 L27.7282471,30.2752795 C27.285285,30.3344538 26.8364054,30.3877107 26.3740002,30.4342048" id="Fill-38" fill="#C49213"></path>
                <path d="M14.8798087,30.6091918 L14.8798087,35.3406024 C15.3219255,35.3701896 15.7741865,35.4006221 16.2298289,35.4234465 L16.2298289,30.6878091 C15.7741865,30.6649847 15.3219255,30.638779 14.8798087,30.6091918" id="Fill-39" fill="#C49213"></path>
                <path d="M22.9926098,30.6878091 L22.9926098,35.4234465 C23.4516335,35.4006221 23.9005131,35.3701896 24.3468567,35.3406024 L24.3468567,30.6091918 C23.9005131,30.638779 23.4516335,30.6649847 22.9926098,30.6878091" id="Fill-40" fill="#C49213"></path>
                <path d="M19.6112193,30.7706532 C19.3872022,30.7706532 19.1589583,30.7672718 18.9340959,30.7672718 L18.9340959,35.4995277 C19.1589583,35.5029091 19.3872022,35.5062905 19.6112193,35.5062905 C19.8394632,35.5062905 20.0634803,35.5029091 20.2883428,35.4995277 L20.2883428,30.7672718 C20.0634803,30.7672718 19.8394632,30.7706532 19.6112193,30.7706532" id="Fill-41" fill="#C49213"></path>
                <path d="M34.6330464,24.9360639 C32.7141073,26.6267592 25.809308,28.0663862 17.5840757,28.0663862 C11.1509804,28.0663862 5.53110944,27.1846886 2.46334295,25.9927485 C2.18268754,26.2497341 2.02714358,26.5177093 2.02714358,26.8017461 C2.02714358,28.8550955 9.89986592,30.7706532 19.6112193,30.7706532 C29.3234181,30.7706532 37.1952951,28.8550955 37.1952951,26.8017461 C37.1952951,26.0916541 36.2578046,25.4610248 34.6330464,24.9360639" id="Fill-42" fill="#FCC62D"></path>
                <path d="M21.6425896,20.6264818 C12.70642,20.6264818 5.3332981,18.9256424 4.20983112,17.0531974 C1.58840817,17.6483222 0,18.4404129 0,19.3618418 C0,21.4160365 7.87187699,23.3307488 17.5840757,23.3307488 C27.2954291,23.3307488 35.1681515,21.4160365 35.1681515,19.3618418 C35.1681515,19.2722349 35.1444817,19.1834734 35.1148946,19.0947119 C31.8924295,20.0026153 27.0511237,20.6264818 21.6425896,20.6264818" id="Fill-43" fill="#FFD949"></path>
                <path d="M34.4842653,9.50170719 C32.3810404,11.1357641 25.6148781,12.509454 17.5840757,12.509454 C12.3961774,12.509454 7.73662137,11.9388444 4.51753765,11.0901154 C4.21997529,11.3538638 4.0585139,11.6311378 4.0585139,11.9219374 C4.0585139,13.9761321 11.9303909,15.8908445 21.6425896,15.8908445 C31.3505616,15.8908445 39.2224386,13.9761321 39.2224386,11.9219374 C39.2224386,10.9413342 37.4235389,10.1061307 34.4842653,9.50170719" id="Fill-44" fill="#FCC62D"></path>
            </g>
        </g>
    </g>
</svg>